<?xml version="1.0" encoding="utf-8"?>
<svg version="1.1" id="Layer_1" xmlns="http://www.w3.org/2000/svg" xmlns:xlink="http://www.w3.org/1999/xlink" x="0px" y="0px"
	 viewBox="0 0 325 327.9" style="enable-background:new 0 0 325 327.9;" xml:space="preserve">
<style type="text/css">
	.st0{fill:#F9BE37;}
</style>
<g>
	<g>
		<path class="st0" d="M268.5,41.2V12.4h-10.1v25.7c-1.7-0.3-3.4-0.4-5.1-0.4h-10.1V12.4h-10.1v25.2h-15.1V12.4h-10.1v25.2h-15.1
			V12.4h-10.1v25.2h-15.1V12.4h-10.1v25.2h-15.1V12.4h-10.1v25.2h-15.1V12.4h-10.1v25.2H91.8V12.4H81.7v25.2H71.6
			c-1.7,0-3.4,0.1-5,0.4V12.4H56.5v28.7c-7.3,3.5-13.2,9.4-16.7,16.7H11V68h25.7c-0.3,1.7-0.4,3.4-0.4,5v10.1H11v10.1h25.2v15.1H11
			v10.1h25.2v15.1H11v10.1h25.2v15.1H11V169h25.2v15.2H11v10.1h25.2v15.1H11v10.1h25.2v15.2H11v10.1h25.2v10.1
			c0,1.7,0.1,3.4,0.4,5.1H11V270h28.7c3.5,7.3,9.4,13.2,16.7,16.7v28.7h10.1v-25.7c1.7,0.3,3.4,0.4,5,0.4h10.1v25.2h10.1v-25.2h15.2
			v25.2h10.1v-25.2h15.1v25.2h10.1v-25.2h15.1v25.2h10.1v-25.2h15.1v25.2h10.1v-25.2h15.1v25.2h10.1v-25.2h15.1v25.2h10.1v-25.2
			h10.1c1.7,0,3.4-0.1,5.1-0.4v25.7h10.1v-28.7c7.3-3.5,13.2-9.4,16.7-16.7H314v-10.1h-25.7c0.3-1.7,0.4-3.4,0.4-5.1v-10.1H314
			v-10.1h-25.2v-15.2H314v-10.1h-25.2v-15.1H314v-10.1h-25.2V169H314v-10.1h-25.2v-15.1H314v-10.1h-25.2v-15.1H314v-10.1h-25.2V93.2
			H314V83.1h-25.2V73c0-1.7-0.1-3.4-0.4-5H314V57.9h-28.7C281.8,50.6,275.9,44.7,268.5,41.2L268.5,41.2z M278.6,254.8
			c0,13.9-11.3,25.2-25.2,25.2H71.6c-13.9,0-25.2-11.3-25.3-25.2V73c0-13.9,11.3-25.2,25.3-25.2h181.8c13.9,0,25.2,11.3,25.2,25.2
			V254.8z M278.6,254.8"/>
	</g>
	<path class="st0" d="M248.4,62.9H76.6c-8.4,0-15.2,6.8-15.2,15.2v171.7c0,8.4,6.8,15.2,15.2,15.2h171.7c8.4,0,15.1-6.8,15.1-15.2
		V78.1C263.5,69.7,256.7,62.9,248.4,62.9L248.4,62.9z M253.4,249.8c0,2.8-2.3,5.1-5,5.1H76.6c-2.8,0-5.1-2.3-5.1-5.1V78.1
		c0-2.8,2.3-5.1,5.1-5.1h171.7c2.8,0,5,2.3,5,5.1V249.8z M253.4,249.8"/>
	<rect x="233.2" y="83.1" class="st0" width="10.1" height="10.1"/>
	<rect x="81.7" y="234.6" class="st0" width="10.1" height="10.1"/>
	<path class="st0" d="M81.7,93.2v15.1h10.1V93.2h15.2V83.1H91.8C86.2,83.1,81.7,87.7,81.7,93.2L81.7,93.2z M81.7,93.2"/>
	<path class="st0" d="M233.2,234.6h-15.1v10.1h25.2v-25.2h-10.1V234.6z M233.2,234.6"/>
</g>
</svg>
