<?xml version="1.0" encoding="utf-8"?>
<svg version="1.1" id="Layer_1" xmlns="http://www.w3.org/2000/svg" xmlns:xlink="http://www.w3.org/1999/xlink" x="0px" y="0px"
	 viewBox="0 0 325 327.9" style="enable-background:new 0 0 325 327.9;" xml:space="preserve">
<style type="text/css">
	.st0{fill:#F9BE37;}
</style>
<g>
	<path class="st0" d="M13.4,144.1H41c1.6,5.9,4,11.5,7,16.8l-19.5,19.5c-0.9,0.9-1.5,2.2-1.5,3.5c0,1.3,0.5,2.6,1.5,3.5l21.1,21.1
		c1.9,1.9,5.1,1.9,7,0L76.1,189c5.3,3,11,5.4,16.8,7v27.6c0,2.7,2.2,5,5,5h29.8c2.7,0,5-2.2,5-5V196c5.9-1.6,11.5-4,16.8-7
		l19.5,19.5c2,1.9,5.1,1.9,7,0l21.1-21.1c0.9-0.9,1.5-2.2,1.5-3.5c0-1.3-0.5-2.6-1.5-3.5l-19.5-19.5c3-5.3,5.4-11,7-16.8h27.6
		c2.7,0,5-2.2,5-5v-29.8c0-2.7-2.2-5-5-5h-27.6c-1.6-5.9-4-11.5-7-16.8l19.5-19.5c0.9-0.9,1.5-2.2,1.5-3.5c0-1.3-0.5-2.6-1.5-3.5
		l-21.1-21.1c-1.9-1.9-5.1-1.9-7,0l-19.5,19.5c-5.3-3-11-5.4-16.8-7V24.8c0-2.7-2.2-5-5-5H97.9c-2.7,0-5,2.2-5,5v27.6
		c-5.9,1.6-11.5,4-16.8,7L56.6,39.8c-2-1.9-5.1-1.9-7,0L28.4,60.9c-0.9,0.9-1.5,2.2-1.5,3.5c0,1.3,0.5,2.6,1.5,3.5L48,87.5
		c-3,5.3-5.4,11-7,16.8H13.4c-2.7,0-5,2.2-5,5v29.8C8.4,141.8,10.6,144.1,13.4,144.1L13.4,144.1z M18.3,114.2h26.5
		c2.3,0,4.4-1.6,4.9-3.9c1.6-7.4,4.6-14.5,8.7-20.9c1.3-2,1-4.5-0.7-6.2L39,64.4L53,50.4l18.8,18.8c1.7,1.7,4.2,1.9,6.2,0.7
		c6.4-4.1,13.5-7.1,20.9-8.7c2.3-0.5,3.9-2.5,3.9-4.9V29.7h19.9v26.5c0,2.3,1.6,4.4,3.9,4.9c7.4,1.6,14.5,4.6,20.9,8.7
		c2,1.3,4.6,1,6.2-0.7l18.8-18.8l14.1,14.1l-18.8,18.8c-1.7,1.7-1.9,4.2-0.7,6.2c4.1,6.4,7.1,13.5,8.7,21c0.5,2.3,2.5,3.9,4.9,3.9
		h26.5v19.9h-26.5c-2.3,0-4.4,1.6-4.9,3.9c-1.6,7.4-4.6,14.5-8.7,20.9c-1.3,2-1,4.5,0.7,6.2l18.8,18.8L172.5,198l-18.8-18.8
		c-1.7-1.7-4.2-1.9-6.2-0.7c-6.4,4.1-13.5,7.1-20.9,8.7c-2.3,0.5-3.9,2.5-3.9,4.9v26.5h-19.9v-26.5c0-2.3-1.6-4.4-3.9-4.9
		c-7.4-1.6-14.5-4.6-20.9-8.7c-2-1.3-4.5-1-6.2,0.7L53,198L39,183.9l18.8-18.8c1.7-1.7,1.9-4.2,0.7-6.2c-4.1-6.4-7.1-13.5-8.7-21
		c-0.5-2.3-2.5-3.9-4.9-3.9H18.3V114.2z M18.3,114.2"/>
	<path class="st0" d="M112.8,163.9c22,0,39.8-17.8,39.8-39.8s-17.8-39.8-39.8-39.8c-22,0-39.8,17.8-39.8,39.8
		C73.1,146.1,90.8,163.9,112.8,163.9L112.8,163.9z M112.8,94.4c16.5,0,29.8,13.4,29.8,29.8S129.3,154,112.8,154
		C96.3,154,83,140.6,83,124.2C83,107.7,96.3,94.4,112.8,94.4L112.8,94.4z M112.8,94.4"/>
	<path class="st0" d="M112.8,178.9c30.2,0,54.7-24.5,54.7-54.7S143,69.5,112.8,69.5S58.1,94,58.1,124.2
		C58.2,154.4,82.6,178.8,112.8,178.9L112.8,178.9z M112.8,79.4c24.7,0,44.7,20,44.7,44.7c0,24.7-20,44.7-44.7,44.7
		c-24.7,0-44.7-20-44.7-44.7C68.1,99.5,88.1,79.5,112.8,79.4L112.8,79.4z M112.8,79.4"/>
	<path class="st0" d="M291.7,248.4v-39.8c0-2.7-2.2-5-5-5h-9.9v-39.8c0-2.7-2.2-5-5-5h-44.7c-2.7,0-5,2.2-5,5v39.8h-24.9
		c-2.7,0-5,2.2-5,5v39.8H33.3c-13.7,0-24.8,11.1-24.9,24.9v9.9c0,13.7,11.1,24.8,24.9,24.9h258.5c13.7,0,24.8-11.1,24.9-24.9v-9.9
		C316.6,259.6,305.5,248.5,291.7,248.4L291.7,248.4z M281.8,248.4H247v-34.8h34.8V248.4z M232.1,168.9h34.8v34.8h-34.8V168.9z
		 M202.3,213.7h34.8v34.8h-34.8V213.7z M306.7,283.2c0,8.2-6.7,14.9-14.9,14.9H33.3c-8.2,0-14.9-6.7-14.9-14.9v-9.9
		c0-8.2,6.7-14.9,14.9-14.9h258.5c8.2,0,14.9,6.7,14.9,14.9V283.2z M306.7,283.2"/>
	<path class="st0" d="M162.5,263.4c-8.2,0-14.9,6.7-14.9,14.9c0,8.2,6.7,14.9,14.9,14.9c8.2,0,14.9-6.7,14.9-14.9
		C177.4,270,170.7,263.4,162.5,263.4L162.5,263.4z M162.5,283.2c-2.7,0-5-2.2-5-5c0-2.7,2.2-5,5-5c2.7,0,5,2.2,5,5
		C167.5,281,165.2,283.2,162.5,283.2L162.5,283.2z M162.5,283.2"/>
	<path class="st0" d="M112.8,263.4c-8.2,0-14.9,6.7-14.9,14.9c0,8.2,6.7,14.9,14.9,14.9c8.2,0,14.9-6.7,14.9-14.9
		C127.7,270,121,263.4,112.8,263.4L112.8,263.4z M112.8,283.2c-2.7,0-5-2.2-5-5c0-2.7,2.2-5,5-5c2.7,0,5,2.2,5,5
		C117.8,281,115.5,283.2,112.8,283.2L112.8,283.2z M112.8,283.2"/>
	<path class="st0" d="M212.2,263.4c-8.2,0-14.9,6.7-14.9,14.9c0,8.2,6.7,14.9,14.9,14.9c8.2,0,14.9-6.7,14.9-14.9
		C227.1,270,220.4,263.4,212.2,263.4L212.2,263.4z M212.2,283.2c-2.7,0-5-2.2-5-5c0-2.7,2.2-5,5-5c2.7,0,5,2.2,5,5
		C217.2,281,215,283.2,212.2,283.2L212.2,283.2z M212.2,283.2"/>
	<path class="st0" d="M63.1,263.4c-8.2,0-14.9,6.7-14.9,14.9c0,8.2,6.7,14.9,14.9,14.9c8.2,0,14.9-6.7,14.9-14.9
		C78,270,71.3,263.4,63.1,263.4L63.1,263.4z M63.1,283.2c-2.7,0-5-2.2-5-5c0-2.7,2.2-5,5-5c2.7,0,5,2.2,5,5
		C68.1,281,65.8,283.2,63.1,283.2L63.1,283.2z M63.1,283.2"/>
	<path class="st0" d="M261.9,263.4c-8.2,0-14.9,6.7-14.9,14.9c0,8.2,6.7,14.9,14.9,14.9c8.2,0,14.9-6.7,14.9-14.9
		C276.8,270,270.2,263.4,261.9,263.4L261.9,263.4z M261.9,283.2c-2.7,0-5-2.2-5-5c0-2.7,2.2-5,5-5c2.7,0,5,2.2,5,5
		C266.9,281,264.7,283.2,261.9,283.2L261.9,283.2z M261.9,283.2"/>
</g>
</svg>
