<?xml version="1.0" encoding="utf-8"?>
<svg version="1.1" id="Layer_1" xmlns="http://www.w3.org/2000/svg" xmlns:xlink="http://www.w3.org/1999/xlink" x="0px" y="0px"
	 viewBox="0 0 325 327.9" style="enable-background:new 0 0 325 327.9;" xml:space="preserve">
<path class="icon-globe-path" d="M283.8,270.3l-5.1-2.1c25.8-28.7,40-65.6,40-104.3c0-31.7-9.6-62.2-27.1-87.9c-0.2-0.4-0.5-0.8-0.8-1.1
	c-7.7-11-16.8-21.1-27.2-30c-2.1-1.8-5.2-1.5-7,0.6c-1.8,2.1-1.5,5.2,0.6,7c8.4,7.1,15.8,15.1,22.3,23.7c-10.4,4.1-23,7.5-37,10.3
	c-3.9-11.5-8.6-22.2-14.2-31.9c-7.5-13-16.2-23.6-25.6-31.3c14.7,4.2,28.7,10.7,41.5,19.4c2.3,1.5,5.3,0.9,6.8-1.3
	c1.5-2.3,0.9-5.3-1.3-6.8C224,17,193.8,7.8,162.5,7.8C120.8,7.8,81.6,24,52.1,53.5C22.6,83,6.3,122.2,6.3,163.9
	c0,38.8,14.2,75.7,40,104.4l-5.1,2c-1.9,0.7-17.7,7-17.7,27.2v17.7c0,2.7,2.2,4.9,4.9,4.9h28.4h4.4h5.3h25.2h9.3
	c0.2,0,0.5,0,0.7-0.1c0.2,0,0.5,0.1,0.7,0.1h20.1c2.7,0,4.9-2.2,4.9-4.9c0-2.7-2.2-4.9-4.9-4.9h-15.1v-17.2
	c0-18.1,14.2-23.3,14.8-23.5c0.1,0,0.2-0.1,0.2-0.1l24-9.4c0.1,0.1,0.1,0.1,0.2,0.2l12.8,12.4c0.9,0.9,2.2,1.4,3.4,1.4
	c0,0,0.1,0,0.1,0c1.3,0,2.6-0.6,3.5-1.5l12.3-12.7l24,9.6c0.1,0,0.1,0.1,0.2,0.1c0.6,0.2,14.8,5.4,14.8,23.5v17.2h-36.1h-38.1H138
	c-2.7,0-4.9,2.2-4.9,4.9c0,2.7,2.2,4.9,4.9,4.9h5.5h38.1h41h0h0h6.3h4.4h5.3h25.2h32.8c2.7,0,4.9-2.2,4.9-5v-17.6
	C301.6,277.4,285.8,271.1,283.8,270.3z M264.1,262.4v-2.8c5.4-3.2,9.5-8.2,11.5-14.2c7.2-0.6,12.8-6.6,12.8-13.9
	c0-4.4-2-8.2-5.1-10.8v-8.8c0-16.9-12.7-30.9-29-33c0.2-3.3,0.3-6.7,0.4-10.1h54.2c-1.2,35.7-15.2,69.4-39.8,95.5L264.1,262.4z
	 M219.1,231.5c0-1.4,0.8-2.7,1.9-3.4v6.9C219.8,234.2,219.1,232.9,219.1,231.5z M165.7,239h-5.6c-11.6,0-21-9.4-21-21v-17.4
	c7.9-0.7,23.4-3.5,34.8-13.7c2.4,4.5,6.4,9.8,12.8,12.5V218C186.7,229.5,177.3,239,165.7,239z M124.4,210.5c0-3,2.1-5.5,4.8-6.2
	v12.3C126.5,216,124.4,213.5,124.4,210.5z M130.9,159H80.3c0.4-21.7,3.5-42.5,8.9-61.3c20.8,3.5,44.2,5.5,68.4,5.8v42.5
	c-10.3,1-19.6,5.9-26.1,13.2C131.2,159,131.1,159,130.9,159z M71.5,262.9c1,0.1,2,0.2,3.1,0.2H79c1,0,2.1-0.1,3.1-0.2v2.7l-5.5,5.7
	l-5.2-5L71.5,262.9L71.5,262.9z M79,253.3h-4.5c-8.7,0-15.8-7.1-15.8-15.8v-13c6.4-0.7,17.8-2.9,26.6-10.3c2,3.4,5,7,9.5,9.1v14.2
	C94.8,246.2,87.8,253.3,79,253.3z M47,231.5c0-1.4,0.8-2.7,1.9-3.4v6.9C47.7,234.2,47,232.9,47,231.5z M104.7,228.2
	c1,0.7,1.7,2,1.7,3.3c0,1.4-0.7,2.6-1.7,3.3V228.2z M101.3,215.1c-0.1,0-0.2-0.1-0.3-0.1c0,0-0.1,0-0.1,0
	c-6.9-1.6-9.1-10.7-9.1-10.8c-0.4-1.9-1.9-3.4-3.8-3.7c-1.9-0.4-3.8,0.4-5,1.9c-8.9,12.4-28.9,12.5-29.1,12.5c0,0,0,0,0,0
	c-0.2,0-0.3,0-0.5,0c-0.1,0-0.1,0-0.2,0c-0.1,0-0.2,0-0.3,0.1c-0.1,0-0.1,0-0.2,0.1c-0.1,0-0.2,0-0.3,0.1c-0.1,0-0.1,0-0.2,0.1v-3.2
	c0-12.9,10.5-23.4,23.4-23.4h2.4c12.9,0,23.4,10.5,23.4,23.4L101.3,215.1L101.3,215.1z M16.3,159c0.9-27.4,9.4-52.9,23.4-74.5
	c11.1,4.5,24.6,8.4,39.8,11.4c-5.5,19.5-8.6,40.9-9,63.1H16.3z M194.8,186v6c0,0-0.1,0-0.1-0.1c-0.1-0.1-0.1-0.1-0.2-0.2
	c-0.1,0-0.1-0.1-0.2-0.1c-0.1,0-0.1-0.1-0.2-0.1c-0.1,0-0.1-0.1-0.2-0.1c-0.1,0-0.1-0.1-0.2-0.1c-0.1,0-0.2-0.1-0.3-0.1
	c-0.1,0-0.1,0-0.2-0.1c-0.1,0-0.2-0.1-0.3-0.1c0,0-0.1,0-0.1,0c-9.4-2.1-12.3-14.3-12.4-14.5c-0.4-1.9-1.9-3.4-3.8-3.7
	c-1.9-0.4-3.8,0.4-5,1.9c-11.5,16-37.1,16.1-37.4,16.1c0,0,0,0,0,0c0,0,0,0,0,0c-0.2,0-0.3,0-0.5,0c-0.1,0-0.1,0-0.2,0
	c-0.1,0-0.2,0-0.3,0.1c-0.1,0-0.1,0-0.2,0.1c-0.1,0-0.2,0-0.3,0.1c-0.1,0-0.2,0.1-0.2,0.1c-0.1,0-0.1,0-0.2,0.1
	c-0.1,0-0.2,0.1-0.3,0.1c-0.1,0-0.1,0.1-0.2,0.1c-0.1,0-0.2,0.1-0.3,0.2c0,0-0.1,0.1-0.1,0.1c-0.1,0.1-0.2,0.1-0.2,0.2
	c0,0-0.1,0.1-0.1,0.1c0,0-0.1,0.1-0.1,0.1V186c0-16.8,13.7-30.5,30.5-30.5h2.9C181.1,155.6,194.8,169.2,194.8,186z M157.6,17.9v75.7
	c-23.1-0.2-45.5-2.1-65.4-5.4c3.6-10.3,7.9-20,12.9-28.7C119.5,34.6,137.9,20,157.6,17.9z M196.6,204.4c2.7,0.8,4.6,3.2,4.6,6.1
	c0,2.9-2,5.3-4.6,6.1V204.4z M194.2,159c-6.7-7.4-16.2-12.4-26.8-13.2v-42.4c24.2-0.2,47.6-2.3,68.4-5.8c5.4,18.9,8.5,39.7,8.9,61.3
	L194.2,159C194.2,159,194.2,159,194.2,159z M247.6,188.6h2.4c12.9,0,23.4,10.5,23.4,23.4v3.2c-0.1,0-0.2-0.1-0.3-0.1
	c0,0-0.1,0-0.1,0c-6.9-1.6-9.1-10.7-9.1-10.8c-0.4-1.9-1.9-3.4-3.8-3.7c-1.9-0.4-3.8,0.4-5,1.9c-8.9,12.3-28.8,12.5-29.1,12.5
	c0,0,0,0,0,0c-0.2,0-0.3,0-0.5,0c-0.1,0-0.1,0-0.2,0c-0.1,0-0.2,0-0.3,0.1c-0.1,0-0.1,0-0.2,0.1c-0.1,0-0.2,0-0.3,0.1
	c-0.1,0-0.1,0-0.2,0.1v-3.2C224.3,199,234.7,188.6,247.6,188.6z M276.8,228.2c1,0.7,1.7,2,1.7,3.3c0,1.4-0.7,2.6-1.7,3.3V228.2z
	 M230.8,224.4c6.4-0.7,17.8-2.9,26.6-10.3c2,3.4,5,7,9.5,9.1v14.2c0,8.7-7.1,15.8-15.8,15.8h-4.5c-8.7,0-15.8-7.1-15.8-15.8
	L230.8,224.4L230.8,224.4z M243.5,262.9c1,0.1,2,0.2,3.1,0.2h4.5c1,0,2.1-0.1,3.1-0.2v2.7l-5.5,5.7l-5.2-5V262.9z M285.4,84.5
	c14.3,22.1,22.5,47.8,23.4,74.5h-54.2c-0.4-22.2-3.5-43.6-9-63.1C260.7,92.9,274.2,89,285.4,84.5z M219.9,59.5
	c5,8.7,9.4,18.4,12.9,28.7c-19.9,3.3-42.2,5.1-65.4,5.4V17.9C187.1,20,205.5,34.6,219.9,59.5z M122.1,23.3
	c-9.4,7.7-18,18.2-25.5,31.2C91,64.2,86.3,74.9,82.4,86.4c-14-2.7-26.5-6.2-36.9-10.2C64.4,51.1,91.2,32.2,122.1,23.3z M16.3,168.9
	h54.2c0.1,3.4,0.2,6.8,0.4,10.2c-16.1,2.3-28.5,16.2-28.5,32.9v8.7c-3.2,2.6-5.2,6.5-5.2,10.8c0,7.4,5.8,13.4,13,13.9
	c2,6,6.1,11.1,11.5,14.2v2.8l-5.4,2.1C31.5,238.4,17.5,204.7,16.3,168.9z M66.5,310.3h-5.3h-4.4H33.4v-12.7
	c0-13.8,10.7-17.7,11.2-17.9c0.1,0,0.2-0.1,0.2-0.1l18.6-7.3l9.9,9.6c0.9,0.9,2.2,1.4,3.4,1.4c0,0,0.1,0,0.1,0
	c1.3,0,2.6-0.6,3.5-1.5l9.3-9.7l11.5,4.6c-2.2,4.5-3.6,9.9-3.6,16.4v17.2h-5.8H66.5z M119,260.2c-3.3,1.1-7.9,3.8-12,8.2l-14.9-6
	v-2.8c5.4-3.2,9.5-8.2,11.5-14.2c7.2-0.6,12.8-6.6,12.8-13.9c0-4.4-2-8.2-5.1-10.8v-8.8c0-17.4-13.4-31.7-30.5-33.1
	c-0.2-3.3-0.3-6.6-0.4-9.9h44.6c-2.5,5.2-3.8,11-3.8,17.2v11.5c-3.9,3-6.5,7.7-6.5,13c0,8.9,7.1,16.1,16,16.2
	c2.3,7.8,7.6,14.3,14.6,18.2v5L119,260.2z M162.7,262.1l-7.7-7.5v-6.2c1.7,0.3,3.4,0.4,5.1,0.4h5.6c1.7,0,3.4-0.2,5.1-0.4v5
	c0,0,0,0,0,0v0.3L162.7,262.1z M206.2,260.2L180.7,250V245c7-3.9,12.3-10.4,14.6-18.2c8.7-0.2,15.8-7.4,15.8-16.2
	c0-5.3-2.5-10-6.4-12.9V186c0-6.1-1.4-12-3.8-17.2h43.9c-0.1,3.3-0.2,6.7-0.4,10c-16.8,1.7-29.9,15.9-29.9,33.1v8.7
	c-3.2,2.6-5.2,6.5-5.2,10.8c0,7.4,5.8,13.4,13,13.9c2,6,6.1,11.1,11.5,14.2v2.8l-15.4,6C214.1,264.1,209.5,261.4,206.2,260.2z
	 M291.7,310.3h-27.9h-25.2h-5.3h-4.4h-1.4v-17.2c0-6.4-1.4-11.8-3.6-16.3l11.5-4.5l9.9,9.6c0.9,0.9,2.2,1.4,3.4,1.4c0,0,0.1,0,0.1,0
	c1.3,0,2.6-0.6,3.5-1.5l9.3-9.7l18.6,7.4c0.1,0,0.1,0.1,0.2,0.1c0.5,0.2,11.2,4.1,11.2,17.9L291.7,310.3L291.7,310.3z"/>
</svg>
