<?xml version="1.0" encoding="utf-8"?>
<!-- Generator: Adobe Illustrator 27.2.0, SVG Export Plug-In . SVG Version: 6.00 Build 0)  -->
<svg version="1.1" id="Isolation_Mode" xmlns="http://www.w3.org/2000/svg" xmlns:xlink="http://www.w3.org/1999/xlink" x="0px"
	 y="0px" viewBox="0 0 65 111.9" style="enable-background:new 0 0 65 111.9;" xml:space="preserve">
<g>
	<path d="M42.7,11.4C55,12.7,55.2,30.7,43,32C26.5,34.3,26,10,42.7,11.4z"/>
	<path d="M51.1,90.9c-0.4,1.6-0.7,3.2-1.2,4.7c-0.1,0.2-0.3,0.4-0.5,0.5c-3.2,1.2-6.4,2.6-9.7,3.5c-4.8,1.3-9.8,1.5-14.4-0.8
		c-4.2-2-6.4-5.5-6.4-10.2c0-3.9,0.9-7.6,2-11.4c1.7-6,3.3-11.9,4.9-17.9c0.5-2.1,0.7-4.2,0.3-6.3c-0.3-1.8-1.3-2.8-3.1-3.2
		c-2.5-0.5-4.9-0.3-7.3,0.5c-0.8,0.3-1.7,0.5-2.7,0.9c0.4-1.7,0.8-3.2,1.2-4.7c0.1-0.2,0.3-0.4,0.5-0.5c4-1.5,7.9-3.2,12.1-3.9
		c4.2-0.7,8.3-0.6,12.2,1.3c4,2,6.1,6.3,5.9,10.7c-0.2,6.1-2.4,11.8-3.9,17.6c-1,3.8-2,7.5-2.9,11.3c-0.5,2-0.7,4.1-0.3,6.1
		c0.3,1.5,1.2,2.6,2.7,3.1c2.6,0.7,5.2,0.5,7.7-0.2C49.2,91.5,50.1,91.2,51.1,90.9z"/>
</g>
</svg>
