<?xml version="1.0" encoding="utf-8"?>
<svg version="1.1" id="Layer_1" xmlns="http://www.w3.org/2000/svg" xmlns:xlink="http://www.w3.org/1999/xlink" x="0px" y="0px"
	 viewBox="0 0 244.4 71.3" style="enable-background:new 0 0 244.4 71.3;" xml:space="preserve">
<style type="text/css">
	.st0{clip-path:url(#SVGID_00000077294005387916199320000000151972149752361348_);fill:#FFFFFF;}
	.st1{clip-path:url(#SVGID_00000077294005387916199320000000151972149752361348_);fill:#FF8A00;}

		.st2{clip-path:url(#SVGID_00000077294005387916199320000000151972149752361348_);fill-rule:evenodd;clip-rule:evenodd;fill:#FFFFFF;}
</style>
<g>
	<defs>
		<rect id="SVGID_1_" x="4" y="3.4" width="236.4" height="64.5"/>
	</defs>
	<clipPath id="SVGID_00000083777278928743777640000011763993452743130517_">
		<use xlink:href="#SVGID_1_"  style="overflow:visible;"/>
	</clipPath>
	<path style="clip-path:url(#SVGID_00000083777278928743777640000011763993452743130517_);fill:#FFFFFF;" d="M42.2,3.4
		C6.6,19.8,4,48.1,9.6,63.9c0.5,1.4,1.1,2.8,1.7,4h19.6C12.2,37.8,21,17.4,42.2,3.4"/>
	<path style="clip-path:url(#SVGID_00000083777278928743777640000011763993452743130517_);fill:#FF8A00;" d="M50.3,3.6
		C43.9,5.3,40,7.9,36.4,10.8C24.8,20,23.2,31.6,24.3,39.3c1.4,10.5,7.6,20.8,13.6,28.6h28.7C19.3,37.2,29.5,16.4,50.3,3.6"/>

		<path style="clip-path:url(#SVGID_00000083777278928743777640000011763993452743130517_);fill-rule:evenodd;clip-rule:evenodd;fill:#FFFFFF;" d="
		M86.7,30.4c-1.3-0.6-2.5-0.9-2.9-0.9c3.9-0.3,6.6-1.7,8.4-3.6c1.3-1.4,2.2-3,2.7-4.6c2.3-7.1,0.4-10.2-0.3-11.1
		c-2.6-3.3-7.9-2.8-7.9-2.8s-14.8,0-21.1,0c-8.3,0.1-11,0.6-13.9,6.9c-2,5.3-10.3,27.1-10.3,27.1s3.4,4.2,6.4,7.4
		c2.1,2.2,4.1,3.7,4.1,3.7h20.9c6.9,0,12.5-2.2,15.5-9.5C92,33.9,88.8,31.5,86.7,30.4 M74.5,37.5c-1.1,4.4-4.9,4-6.1,4.1
		c-1.2,0.1-9.3,0-9.3,0s-2.9,0.3-1.6-2.8c0.9-2.2,1.5-4.2,1.5-4.2h12.8C71.8,34.7,75.1,34.5,74.5,37.5 M79.5,22.3
		c-1,2.7-4.1,2.4-4.1,2.4H63c0,0,0.9-2.2,1.2-3.4c0.8-3,3.8-2.9,3.8-2.9h10C80.9,18.4,80,20.9,79.5,22.3 M125.6,18.4h-10.8
		c0,0-14.9-1.2-20.1,12.6c-4.6,12.2-8.1,21.4-8.1,21.4h13l7.2-18.2c0,0,1-3.6,5-5.6c2.4-1.2,6-1.3,10.5-1.3
		C122.1,27.2,125.6,18.4,125.6,18.4 M178.8,43.7c-2.3,0.1-3.8-0.2-5-1.4c-1.2-1.2-1.1-3.4,0.3-7.7c2.7-8,10.9-7.2,10.9-7.2h12.3
		l3.5-8.9c0,0-7.1-0.2-17.1-0.2c-10,0-13.6,2.1-15.9,4c-7,5.4-8.3,16.2-8.6,18c-2.2,13,10.1,12.4,10.1,12.4h19.1l3.4-8.9
		C191.8,43.7,181.1,43.6,178.8,43.7 M151.4,39.6c0,0,6.1,0,7.9-5.1c4.9-10.8,1.4-12.8,0-14.2c-3.6-2.7-14.1-2.5-20.4-2
		c-2.6,0.2-6.5,0-10.4,3.1c-6.6,5.2-9.3,16-9.6,16.7c-5.3,15.2,8.6,14.3,8.6,14.3h23.4l3.3-8.6h-19c0,0-5.2,0.7-3.1-4.2
		C131.9,39.4,151.4,39.6,151.4,39.6 M141.6,26.8c1.1-0.1,4.1,0.1,4.6,0.2c2,0.6,1.9,1.8,1.8,2.2c-0.7,2.6-2.4,2.3-2.4,2.3H135
		C136,27.6,139.1,26.9,141.6,26.8 M223.4,33.3l17-15h-14.5l-13.6,12.2l8.5-22.7h-13l-17.1,44.9H204l5.1-13.9l6.3,13.9h14.2
		c0,0-5.6-11.6-7-14.4C221.2,35.4,223.4,33.3,223.4,33.3"/>
</g>
</svg>
