<?xml version="1.0" encoding="utf-8"?>
<svg version="1.1" id="Layer_1" xmlns="http://www.w3.org/2000/svg" xmlns:xlink="http://www.w3.org/1999/xlink" x="0px" y="0px"
	 viewBox="0 0 534.7 543" style="enable-background:new 0 0 534.7 543;" xml:space="preserve">
<g>
	<path  d="M251.3,15.5c10.7,0,21.3,0,32,0c8.6,1.1,17.2,1.9,25.7,3.4c48.6,8.3,91.6,28.6,128.3,61.5
		c44.1,39.6,71.7,88.6,82.1,147c1.7,9.3,2.6,18.7,3.9,28.1c0,10.7,0,21.3,0,32c-0.3,1.3-0.7,2.6-0.8,3.9c-3,39.5-14.3,76.5-35,110.3
		c-40.6,66.6-99.3,107.5-176.1,122c-9.3,1.7-18.7,2.6-28.1,3.9c-10.7,0-21.3,0-32,0c-6.2-0.8-12.5-1.4-18.7-2.3
		c-50.9-7.3-96-27.7-134.4-61.9C53.7,423.8,26,374.7,15.3,316.1c-1.7-9.5-2.7-19.1-4-28.6c0-10.7,0-21.3,0-32
		c0.8-6.3,1.4-12.5,2.3-18.8c8.1-55.8,31.6-104.1,71.1-144.3c38.3-39,84.5-63.5,138.5-73C232.6,17.8,242,16.8,251.3,15.5z
		 M402.3,160.9c-10.9,3.9-21.5,7.7-32.1,11.5c-3.1,1.1-5.3,0.3-7.9-2c-33-30.3-86.7-14-96.8,29.6c-2,8.5-1.4,17.7-2.1,27
		c-47.9-3.3-87.9-24-120.1-61.6c-14.1,31.1-8.2,56.8,18.1,79.3c-5.7-1.1-9.8-1.7-13.8-2.8c-4.1-1.2-8-2.9-12.1-4.4
		c-1.6,24.8,14.3,45.3,44.5,58.8c-7.9,0-15.8,0-24.4,0c10,25.4,27.9,38.5,54.8,41.3c-25.7,19.3-53.8,26.9-85.2,24.4
		c0.7,0.9,0.9,1.2,1.2,1.4c0.8,0.6,1.7,1.1,2.5,1.6c45.1,25.8,92.7,30.4,141.6,13.9c66.9-22.5,112.3-89.2,110.9-160.9
		c-0.1-3.5,0.8-5.7,3.7-7.9c9.5-7.3,17.8-15.9,24.7-26.3c-10.5,2.8-20.5,5.5-30.5,8.2c-0.2-0.4-0.4-0.8-0.7-1.2
		C389.9,183.2,398,173.3,402.3,160.9z"/>
</g>
</svg>
