<?xml version="1.0" encoding="utf-8"?>
<!-- Generator: Adobe Illustrator 27.1.1, SVG Export Plug-In . SVG Version: 6.00 Build 0)  -->
<svg version="1.1" id="Layer_1" xmlns="http://www.w3.org/2000/svg" xmlns:xlink="http://www.w3.org/1999/xlink" x="0px" y="0px"
	 viewBox="0 0 64 64" style="enable-background:new 0 0 64 64;" xml:space="preserve">
<style type="text/css">
	.st0{fill:#FFBF3C;}
	.st1{fill:#404041;}
</style>
<g>
	<path class="st0" d="M57.1,24.8h-47c-3.6,3.5-5.1,7.5-4.4,11.3c0.2,1,0.5,2,1.1,3h47c3.6-3.5,5.1-7.5,4.3-11.3
		C58,26.8,57.6,25.8,57.1,24.8z"/>
	<path class="st1" d="M40.9,27.4c-0.1-0.1-0.2-0.2-0.3-0.3c-0.3-0.3-0.9-0.4-1.6-0.4c-0.5,0-1,0.1-1.4,0.2c-0.3,0.1-0.5,0.2-0.7,0.4
		c-0.5,0.4-0.9,1-1,1.7l-0.3,1.5h2.2l0.3-1.5c0.1-0.2,0.1-0.4,0.2-0.4c0.1-0.1,0.2-0.2,0.3-0.2c0.2,0,0.2,0.1,0.3,0.2s0.1,0.3,0,0.4
		l-0.2,0.7c-0.1,0.3-0.5,0.7-1.2,1c-0.1,0.1-0.2,0.1-0.3,0.2c-0.3,0.1-0.5,0.2-0.7,0.3c-0.5,0.2-0.8,0.5-1.1,0.8
		c-0.3,0.3-0.4,0.8-0.5,1.3l0,0.2l-0.4,2c-0.1,0.5-0.1,1,0.1,1.2c0.1,0.1,0.2,0.2,0.3,0.3c0.2,0.1,0.4,0.1,0.7,0.1
		c0.4,0,0.7-0.1,1-0.3c0.3-0.2,0.6-0.4,0.8-0.8h0.1l-0.1,0.2c0,0.1-0.1,0.2-0.1,0.3c0,0.1,0,0.2,0,0.4h2.2c0-0.2,0-0.4,0-0.6
		s0.1-0.4,0.1-0.7l0.9-4.2l0.4-1.9C41.2,28.5,41.2,27.8,40.9,27.4 M37.7,34.7c-0.1,0.2-0.1,0.3-0.2,0.4l-0.1,0.1
		c-0.1,0.1-0.2,0.1-0.3,0.1c-0.2,0-0.2-0.1-0.3-0.1c-0.1-0.1-0.1-0.2,0-0.5l0.4-1.6c0.1-0.2,0.1-0.3,0.3-0.5
		c0.1-0.1,0.3-0.3,0.5-0.4c0.1-0.1,0.1-0.1,0.2-0.1L37.7,34.7z"/>
	<path class="st1" d="M35.4,28.5c0.1-0.6,0.1-1-0.1-1.3C35.3,27.1,35.2,27,35,27s-0.4-0.1-0.7-0.1c-0.3,0-0.7,0.1-1,0.3
		c-0.3,0.1-0.6,0.4-0.9,0.7h-0.1c-0.1-0.3-0.2-0.6-0.3-0.8c-0.2-0.2-0.4-0.3-0.8-0.3c-0.3,0-0.7,0.1-1,0.3c-0.3,0.2-0.6,0.4-0.8,0.8
		h-0.1l0.2-0.8h-2.2l-1.5,6.6L25.4,37h2.2l1.7-7.7c0.1-0.2,0.1-0.3,0.2-0.4c0.1-0.1,0.2-0.2,0.3-0.2c0.2,0,0.3,0.1,0.3,0.1
		c0.1,0.1,0.1,0.2,0,0.5L28.3,37h2.2l1.7-7.8c0.1-0.2,0.1-0.3,0.2-0.4c0.1-0.1,0.2-0.2,0.3-0.2c0.2,0,0.2,0.1,0.3,0.1
		c0.1,0.1,0.1,0.2,0,0.5l-1.7,7.7h2.2l1.4-6.5L35.4,28.5z"/>
	<path class="st1" d="M26.9,27h-2.2L23,34.7c-0.1,0.2-0.1,0.4-0.2,0.4c-0.1,0.1-0.2,0.2-0.3,0.2c-0.2,0-0.2-0.1-0.3-0.1
		c-0.1-0.1-0.1-0.2,0-0.4l1.7-7.8h-2.2l-1.1,4.9l-0.8,3.6c-0.1,0.5-0.1,1,0.1,1.2c0.1,0.2,0.4,0.3,0.7,0.4c0.1,0,0.2,0.1,0.3,0.1
		c0.3,0,0.7-0.1,1-0.2c0.3-0.2,0.5-0.4,0.8-0.8h0.1L22.6,37h2.2l1.5-6.6L26.9,27z"/>
	<path class="st1" d="M41.1,39.1h2.2c0.4-0.1,0.7-0.3,1-0.5c0.5-0.4,0.9-1.1,1.1-2.2l2.1-9.4h-2.2l-0.2,0.9H45
		c-0.1-0.4-0.3-0.7-0.5-0.8c-0.2-0.2-0.5-0.3-0.9-0.3c-0.4,0-0.9,0.1-1.1,0.4c-0.3,0.3-0.5,0.7-0.6,1.1l-1.3,5.9
		c-0.1,0.6-0.1,1,0.1,1.2c0.2,0.3,0.5,0.4,1,0.4c0.4,0,0.7-0.1,1-0.3c0.3-0.2,0.5-0.4,0.8-0.8h0.1L43,36.9c-0.1,0.2-0.1,0.4-0.2,0.5
		c-0.1,0.1-0.2,0.2-0.3,0.2c-0.2,0-0.2-0.1-0.3-0.2s-0.1-0.3,0-0.5l0.2-0.8h-2.2L40,37c-0.2,0.7-0.1,1.3,0.3,1.7
		C40.5,38.8,40.8,39,41.1,39.1 M43.3,34.1c-0.2,0-0.3-0.1-0.3-0.1c-0.1-0.1-0.1-0.3,0-0.5l1-4.3c0.1-0.2,0.1-0.4,0.2-0.4
		c0.1-0.1,0.2-0.1,0.3-0.1c0.2,0,0.2,0.1,0.3,0.2s0.1,0.2,0,0.4l-1,4.3c-0.1,0.2-0.1,0.4-0.2,0.4S43.4,34.1,43.3,34.1z"/>
	<polygon class="st1" points="19.2,24.8 16.6,36.9 18.8,36.9 20.6,28.4 21.4,24.8 	"/>
	<path class="st1" d="M7.7,24.8C3.4,28.6,1.1,33,1.6,37.3c0.1,0.7,0.2,1.2,0.4,1.8h4c-0.4-0.9-0.8-1.8-1-2.8c-0.7-4,0.7-8,4.1-11.5
		H7.7 M62.4,26.7c-0.1-0.7-0.2-1.2-0.4-1.8h-4c0.5,0.9,0.8,1.8,1,2.9c0.8,3.9-0.7,7.9-4.1,11.4h1.5C60.6,35.3,62.9,30.9,62.4,26.7z"
		/>
</g>
</svg>
