<?xml version="1.0" encoding="utf-8"?>
<!-- Generator: Adobe Illustrator 27.0.1, SVG Export Plug-In . SVG Version: 6.00 Build 0)  -->
<svg version="1.1" id="Isolation_Mode" xmlns="http://www.w3.org/2000/svg" xmlns:xlink="http://www.w3.org/1999/xlink" x="0px"
	 y="0px" viewBox="0 0 45.6 47.3" style="enable-background:new 0 0 45.6 47.3;" xml:space="preserve">
<style type="text/css">
	.st0{fill:url(#SVGID_1_);}
	.st1{filter:url(#Adobe_OpacityMaskFilter);}
	.st2{opacity:0.75;mask:url(#SVGID_00000059289239121918841680000007179945679991616908_);}
	.st3{fill:#F2F4F4;}
	.st4{fill:url(#SVGID_00000081607177044909063000000017063363963064644266_);}
	.st5{filter:url(#Adobe_OpacityMaskFilter_00000151536648992275724480000001107788164049952430_);}
	.st6{opacity:0.75;mask:url(#SVGID_00000002380190839545771060000017298839512643494528_);}
	.st7{fill:url(#SVGID_00000168089871002531627870000009834147897502279592_);}
	.st8{fill:none;stroke:#999999;}
	.st9{filter:url(#Adobe_OpacityMaskFilter_00000062153445506613353130000009061913175773466798_);}
	.st10{opacity:0.75;mask:url(#SVGID_00000131353474494019516660000005968218692924810907_);}
	.st11{fill:none;stroke:#F2F4F4;}
	.st12{fill-rule:evenodd;clip-rule:evenodd;fill:#F5851F;}
</style>
<g>
	<g>
		<linearGradient id="SVGID_1_" gradientUnits="userSpaceOnUse" x1="17.2354" y1="2.3578" x2="28.9853" y2="46.2091">
			<stop  offset="0" style="stop-color:#FFFFFF"/>
			<stop  offset="1" style="stop-color:#ABABAB"/>
		</linearGradient>
		<path class="st0" d="M43.1,36.3c0,4.4-3.6,8-8,8h-24c-4.4,0-8-3.6-8-8v-24c0-4.4,3.6-8,8-8h24c4.4,0,8,3.6,8,8V36.3z"/>
	</g>
	<defs>
		<filter id="Adobe_OpacityMaskFilter" filterUnits="userSpaceOnUse" x="3.1" y="4.3" width="40" height="40">
			<feFlood  style="flood-color:white;flood-opacity:1" result="back"/>
			<feBlend  in="SourceGraphic" in2="back" mode="normal"/>
		</filter>
	</defs>
	
		<mask maskUnits="userSpaceOnUse" x="3.1" y="4.3" width="40" height="40" id="SVGID_00000067211461337804146610000016600136290121762451_">
		<g class="st1">
			<image style="overflow:visible;" width="45" height="45" xlink:href="926249197FF8C1DF.jpg"  transform="matrix(1 0 0 1 1 2)">
			</image>
		</g>
	</mask>
	<g style="opacity:0.75;mask:url(#SVGID_00000067211461337804146610000016600136290121762451_);">
		<path class="st3" d="M43.1,36.3c0,4.4-3.6,8-8,8h-24c-4.4,0-8-3.6-8-8v-24c0-4.4,3.6-8,8-8h24c4.4,0,8,3.6,8,8V36.3z"/>
	</g>
</g>
<g>
	<g>
		<g>
			
				<linearGradient id="SVGID_00000166647886856068085570000010046920970445827247_" gradientUnits="userSpaceOnUse" x1="40.7673" y1="6.6264" x2="5.4533" y2="41.9404">
				<stop  offset="8.711971e-02" style="stop-color:#FFFFFF"/>
				<stop  offset="1" style="stop-color:#D9D9D9"/>
			</linearGradient>
			<path style="fill:url(#SVGID_00000166647886856068085570000010046920970445827247_);" d="M43.1,36.3c0,4.4-3.6,8-8,8h-24
				c-4.4,0-8-3.6-8-8v-24c0-4.4,3.6-8,8-8h24c4.4,0,8,3.6,8,8V36.3z"/>
		</g>
		<defs>
			
				<filter id="Adobe_OpacityMaskFilter_00000094602853895003638460000016054427881382234253_" filterUnits="userSpaceOnUse" x="3.1" y="4.3" width="40" height="40">
				<feFlood  style="flood-color:white;flood-opacity:1" result="back"/>
				<feBlend  in="SourceGraphic" in2="back" mode="normal"/>
			</filter>
		</defs>
		
			<mask maskUnits="userSpaceOnUse" x="3.1" y="4.3" width="40" height="40" id="SVGID_00000158713902707093168880000003619663019419708303_">
			<g style="filter:url(#Adobe_OpacityMaskFilter_00000094602853895003638460000016054427881382234253_);">
				<image style="overflow:visible;" width="45" height="45" xlink:href="926249197FF8C1DD.jpg"  transform="matrix(1 0 0 1 1 2)">
				</image>
			</g>
		</mask>
		<g style="opacity:0.75;mask:url(#SVGID_00000158713902707093168880000003619663019419708303_);">
			<path class="st3" d="M43.1,36.3c0,4.4-3.6,8-8,8h-24c-4.4,0-8-3.6-8-8v-24c0-4.4,3.6-8,8-8h24c4.4,0,8,3.6,8,8V36.3z"/>
		</g>
	</g>
	<g>
		<g>
			
				<linearGradient id="SVGID_00000150801062102496900010000014588467035404099456_" gradientUnits="userSpaceOnUse" x1="23.1103" y1="7.2833" x2="23.1103" y2="42.2837">
				<stop  offset="8.711971e-02" style="stop-color:#FBFCFC"/>
				<stop  offset="1" style="stop-color:#E9EBEC"/>
			</linearGradient>
			<path style="fill:url(#SVGID_00000150801062102496900010000014588467035404099456_);" d="M40.6,35.3c0,3.9-3.1,7-7,7h-21
				c-3.9,0-7-3.1-7-7v-21c0-3.9,3.1-7,7-7h21c3.9,0,7,3.1,7,7V35.3z"/>
			<path class="st8" d="M40.6,35.3c0,3.9-3.1,7-7,7h-21c-3.9,0-7-3.1-7-7v-21c0-3.9,3.1-7,7-7h21c3.9,0,7,3.1,7,7V35.3z"/>
		</g>
		<defs>
			
				<filter id="Adobe_OpacityMaskFilter_00000026150579425240057720000013589031854779438761_" filterUnits="userSpaceOnUse" x="5.1" y="6.8" width="36" height="36">
				<feFlood  style="flood-color:white;flood-opacity:1" result="back"/>
				<feBlend  in="SourceGraphic" in2="back" mode="normal"/>
			</filter>
		</defs>
		
			<mask maskUnits="userSpaceOnUse" x="5.1" y="6.8" width="36" height="36" id="SVGID_00000101077609436683837820000001257819545625304974_">
			<g style="filter:url(#Adobe_OpacityMaskFilter_00000026150579425240057720000013589031854779438761_);">
				<image style="overflow:visible;" width="41" height="41" xlink:href="926249197FF8C1E3.jpg"  transform="matrix(1 0 0 1 3 4)">
				</image>
			</g>
		</mask>
		<g style="opacity:0.75;mask:url(#SVGID_00000101077609436683837820000001257819545625304974_);">
			<path class="st3" d="M40.6,35.3c0,3.9-3.1,7-7,7h-21c-3.9,0-7-3.1-7-7v-21c0-3.9,3.1-7,7-7h21c3.9,0,7,3.1,7,7V35.3z"/>
			<path class="st11" d="M40.6,35.3c0,3.9-3.1,7-7,7h-21c-3.9,0-7-3.1-7-7v-21c0-3.9,3.1-7,7-7h21c3.9,0,7,3.1,7,7V35.3z"/>
		</g>
	</g>
	<path class="st12" d="M11.8,23.3h5.4c0.3,0,0.6,0.2,0.8,0.5l2,3.5l8.3-13.6c0.2-0.3,0.4-0.4,0.7-0.4v0h5.3c0.5,0,0.8,0.4,0.8,0.9
		c0,0.2-0.1,0.4-0.2,0.5L21.4,35.3h-3.6l-6.8-10.7c-0.3-0.4-0.1-0.9,0.2-1.2C11.5,23.3,11.7,23.3,11.8,23.3L11.8,23.3z"/>
</g>
</svg>
