<?xml version="1.0" encoding="utf-8"?>
<!-- Generator: Adobe Illustrator 27.0.1, SVG Export Plug-In . SVG Version: 6.00 Build 0)  -->
<svg version="1.1" id="Isolation_Mode" xmlns="http://www.w3.org/2000/svg" xmlns:xlink="http://www.w3.org/1999/xlink" x="0px"
	 y="0px" viewBox="0 0 45.6 47.3" style="enable-background:new 0 0 45.6 47.3;" xml:space="preserve">
<style type="text/css">
	.st0{fill:url(#SVGID_1_);}
	.st1{filter:url(#Adobe_OpacityMaskFilter);}
	.st2{opacity:0.75;mask:url(#SVGID_00000091704958791749050340000009047050434121313688_);}
	.st3{fill:#F2F4F4;}
	.st4{fill:url(#SVGID_00000134966020784902029070000017904085816907441851_);}
	.st5{filter:url(#Adobe_OpacityMaskFilter_00000015345563968465974060000002845330594823013041_);}
	.st6{opacity:0.75;mask:url(#SVGID_00000026856361789544054040000012819376148004035475_);}
	.st7{fill:url(#SVGID_00000052806838988558494210000005389995199329390763_);}
	.st8{fill:none;stroke:#999999;}
	.st9{filter:url(#Adobe_OpacityMaskFilter_00000045590640247136926550000013445048571932051106_);}
	.st10{opacity:0.75;mask:url(#SVGID_00000143578060328971397030000016096093450442674584_);}
	.st11{fill:none;stroke:#F2F4F4;}
</style>
<g>
	<g>
		<linearGradient id="SVGID_1_" gradientUnits="userSpaceOnUse" x1="17.2354" y1="2.3578" x2="28.9853" y2="46.2091">
			<stop  offset="0" style="stop-color:#FFFFFF"/>
			<stop  offset="1" style="stop-color:#ABABAB"/>
		</linearGradient>
		<path class="st0" d="M43.1,36.3c0,4.4-3.6,8-8,8h-24c-4.4,0-8-3.6-8-8v-24c0-4.4,3.6-8,8-8h24c4.4,0,8,3.6,8,8V36.3z"/>
	</g>
	<defs>
		<filter id="Adobe_OpacityMaskFilter" filterUnits="userSpaceOnUse" x="3.1" y="4.3" width="40" height="40">
			<feFlood  style="flood-color:white;flood-opacity:1" result="back"/>
			<feBlend  in="SourceGraphic" in2="back" mode="normal"/>
		</filter>
	</defs>
	
		<mask maskUnits="userSpaceOnUse" x="3.1" y="4.3" width="40" height="40" id="SVGID_00000155855415951788670460000003563985568630022550_">
		<g class="st1">
			<image style="overflow:visible;" width="45" height="45" xlink:href="B383CE36783E3D6D.jpg"  transform="matrix(1 0 0 1 1 2)">
			</image>
		</g>
	</mask>
	<g style="opacity:0.75;mask:url(#SVGID_00000155855415951788670460000003563985568630022550_);">
		<path class="st3" d="M43.1,36.3c0,4.4-3.6,8-8,8h-24c-4.4,0-8-3.6-8-8v-24c0-4.4,3.6-8,8-8h24c4.4,0,8,3.6,8,8V36.3z"/>
	</g>
</g>
<g>
	<g>
		<g>
			
				<linearGradient id="SVGID_00000136378576820440727090000003942752657666169994_" gradientUnits="userSpaceOnUse" x1="40.7673" y1="6.6264" x2="5.4533" y2="41.9404">
				<stop  offset="8.711971e-02" style="stop-color:#FFFFFF"/>
				<stop  offset="1" style="stop-color:#D9D9D9"/>
			</linearGradient>
			<path style="fill:url(#SVGID_00000136378576820440727090000003942752657666169994_);" d="M43.1,36.3c0,4.4-3.6,8-8,8h-24
				c-4.4,0-8-3.6-8-8v-24c0-4.4,3.6-8,8-8h24c4.4,0,8,3.6,8,8V36.3z"/>
		</g>
		<defs>
			
				<filter id="Adobe_OpacityMaskFilter_00000010989203559214706980000010679525504616860813_" filterUnits="userSpaceOnUse" x="3.1" y="4.3" width="40" height="40">
				<feFlood  style="flood-color:white;flood-opacity:1" result="back"/>
				<feBlend  in="SourceGraphic" in2="back" mode="normal"/>
			</filter>
		</defs>
		
			<mask maskUnits="userSpaceOnUse" x="3.1" y="4.3" width="40" height="40" id="SVGID_00000022542486712633103140000006420914163046344616_">
			<g style="filter:url(#Adobe_OpacityMaskFilter_00000010989203559214706980000010679525504616860813_);">
				<image style="overflow:visible;" width="45" height="45" xlink:href="B383CE36783E3D6F.jpg"  transform="matrix(1 0 0 1 1 2)">
				</image>
			</g>
		</mask>
		<g style="opacity:0.75;mask:url(#SVGID_00000022542486712633103140000006420914163046344616_);">
			<path class="st3" d="M43.1,36.3c0,4.4-3.6,8-8,8h-24c-4.4,0-8-3.6-8-8v-24c0-4.4,3.6-8,8-8h24c4.4,0,8,3.6,8,8V36.3z"/>
		</g>
	</g>
	<g>
		<g>
			
				<linearGradient id="SVGID_00000174600014051340953800000011623010297593861519_" gradientUnits="userSpaceOnUse" x1="23.1103" y1="7.2833" x2="23.1103" y2="42.2837">
				<stop  offset="8.711971e-02" style="stop-color:#FBFCFC"/>
				<stop  offset="1" style="stop-color:#E9EBEC"/>
			</linearGradient>
			<path style="fill:url(#SVGID_00000174600014051340953800000011623010297593861519_);" d="M40.6,35.3c0,3.9-3.1,7-7,7h-21
				c-3.9,0-7-3.1-7-7v-21c0-3.9,3.1-7,7-7h21c3.9,0,7,3.1,7,7V35.3z"/>
			<path class="st8" d="M40.6,35.3c0,3.9-3.1,7-7,7h-21c-3.9,0-7-3.1-7-7v-21c0-3.9,3.1-7,7-7h21c3.9,0,7,3.1,7,7V35.3z"/>
		</g>
		<defs>
			
				<filter id="Adobe_OpacityMaskFilter_00000000192335082836267940000007705700341303564449_" filterUnits="userSpaceOnUse" x="5.1" y="6.8" width="36" height="36">
				<feFlood  style="flood-color:white;flood-opacity:1" result="back"/>
				<feBlend  in="SourceGraphic" in2="back" mode="normal"/>
			</filter>
		</defs>
		
			<mask maskUnits="userSpaceOnUse" x="5.1" y="6.8" width="36" height="36" id="SVGID_00000108292019914875539010000009056997468009384363_">
			<g style="filter:url(#Adobe_OpacityMaskFilter_00000000192335082836267940000007705700341303564449_);">
				<image style="overflow:visible;" width="41" height="41" xlink:href="B383CE36783E3D6A.jpg"  transform="matrix(1 0 0 1 3 4)">
				</image>
			</g>
		</mask>
		<g style="opacity:0.75;mask:url(#SVGID_00000108292019914875539010000009056997468009384363_);">
			<path class="st3" d="M40.6,35.3c0,3.9-3.1,7-7,7h-21c-3.9,0-7-3.1-7-7v-21c0-3.9,3.1-7,7-7h21c3.9,0,7,3.1,7,7V35.3z"/>
			<path class="st11" d="M40.6,35.3c0,3.9-3.1,7-7,7h-21c-3.9,0-7-3.1-7-7v-21c0-3.9,3.1-7,7-7h21c3.9,0,7,3.1,7,7V35.3z"/>
		</g>
	</g>
</g>
</svg>
