<?xml version="1.0" encoding="utf-8"?>
<!-- Generator: Adobe Illustrator 27.0.1, SVG Export Plug-In . SVG Version: 6.00 Build 0)  -->
<svg version="1.1" id="Layer_1" xmlns="http://www.w3.org/2000/svg" xmlns:xlink="http://www.w3.org/1999/xlink" x="0px" y="0px"
	 viewBox="0 0 325 327.9" style="enable-background:new 0 0 325 327.9;" xml:space="preserve">
<style type="text/css">
	.st0{fill-rule:evenodd;clip-rule:evenodd;fill:#F9BE37;}
	.st1{fill:#F9BE37;}
</style>
<g>
	<path class="st0" d="M121.7,110c29.9-15.7,66.8-4.2,82.5,25.6c15.6,29.8,4.1,66.7-25.6,82.3c-30.1,15.8-66.8,4.3-82.6-25.7
		C80.4,162.5,92,125.6,121.7,110z M162.2,186.8c12.5-6.6,17.4-22.3,10.9-34.9c-6.6-12.6-22.4-17.5-35-10.9
		c-12.6,6.7-17.5,22.2-10.8,35C133.9,188.7,149.5,193.5,162.2,186.8z M165.2,192.9c-5,2.6-7,8.8-4.4,13.7c2.5,4.9,8.9,6.9,13.8,4.4
		c5-2.6,6.9-8.7,4.3-13.7C176.3,192.2,170.3,190.2,165.2,192.9z M181.2,147.7c2.6,5,8.7,6.9,13.8,4.4c5-2.6,7-8.7,4.4-13.7
		c-2.6-5.1-8.6-7-13.7-4.4C180.6,136.6,178.6,142.7,181.2,147.7z M139.3,121.4c-2.6-5-8.8-7-13.7-4.3c-4.9,2.6-6.9,8.9-4.4,13.8
		c2.6,4.9,8.8,6.9,13.8,4.3C140.1,132.4,142,126.4,139.3,121.4z M116.1,193.3c5-2.5,7-8.8,4.4-13.7c-2.5-5-8.7-6.9-13.7-4.3
		c-5.1,2.6-7,8.7-4.4,13.7C104.9,193.9,111,195.8,116.1,193.3z"/>
	<path class="st0" d="M282.4,204.8c-3.3-1-6.3-2-9.6-3c-0.2,0.8-0.5,1.5-0.7,2.2c-10.2,30.6-28.6,55-55.6,72.6
		c-22.4,14.6-47,21.5-73.8,20.7c-16.1-0.5-31.5-4.1-46.2-10.7c-23-10.5-41.4-26.5-54.8-47.9c-16.6-26.6-22.8-55.6-19.6-86.8
		c1.4-13,4.6-25.6,9.6-37.7C43,87.5,60.5,66,85.1,50.5c24.6-15.5,51.5-22.2,80.4-19.3c25.9,2.6,48.8,12.5,68.6,29.6
		c0.1,0.1,0.3,0.2,0.6,0.5c2.1-2.4,4.2-4.8,6.7-7.6c-4.5-3.4-8.6-6.8-13.1-9.8c-11.3-7.8-23.6-13.6-36.8-17.5
		c-23.5-7-47.3-7.7-71.1-1.6C82.2,34.5,53.2,57,32.5,90.6c-7.8,12.7-13.4,26.4-16.8,40.8c-7.6,31.8-5.5,62.8,7.4,93
		c9.2,21.7,23.1,39.8,41.6,54.4c9.7,7.7,20.3,13.8,31.8,18.5c23.1,9.4,47,12.2,71.7,8.3c27.7-4.4,51.9-16.4,72.6-35.2
		c12.4-11.2,22.4-24.2,30.3-38.8c4.4-8.1,7.9-16.6,10.8-25.3C282,205.9,282.2,205.5,282.4,204.8z"/>
	<path class="st1" d="M213.4,87.4c0.7-0.7,1.3-1.3,2-2c13.3-13.2,26.7-26.5,40-39.7c0.5-0.5,0.9-0.9,1.4-1.4
		c2.4-1.9,5.7-2.6,8.8-1.6c1.6,0.5,2.9,1.4,4,2.5c0.3,0.4,0.6,0.7,0.9,1.1c24.3,28,38.2,60.7,42.2,98.1c1.8,16.7,1.1,33.3-1.9,49.8
		c-0.1,0.3-0.1,0.6-0.2,0.9c-0.1,0.5-0.2,1-0.3,1.5c-1.4,4.4-5.6,7.1-10,6.6c-0.9-0.2-1.8-0.4-2.7-0.7c-1.4-0.4-2.9-0.7-4.3-1.1
		c-8.1-2-16.3-3.9-24.4-5.8c-8.2-2-16.4-3.9-24.6-5.9c-0.4-0.1-0.8-0.2-1.2-0.3c-0.8-0.2-1.7-0.4-2.5-0.6c-1.4-0.6-2.7-1.4-3.6-2.5
		c-0.3-0.4-0.6-0.7-0.8-1.1c-1.1-1.7-1.7-3.7-1.6-5.8c0.1-0.6,0.2-1.1,0.2-1.7c3.9-29-2.5-55.2-20.9-78.3c-0.3-0.4-0.6-0.7-0.8-1.1
		c-1.6-2.3-2.1-5.3-1.2-8.2C212.2,89.2,212.7,88.2,213.4,87.4z"/>
</g>
</svg>
