<?xml version="1.0" encoding="utf-8"?>
<!-- Generator: Adobe Illustrator 27.0.1, SVG Export Plug-In . SVG Version: 6.00 Build 0)  -->
<svg version="1.1" id="Layer_1" xmlns="http://www.w3.org/2000/svg" xmlns:xlink="http://www.w3.org/1999/xlink" x="0px" y="0px"
	 viewBox="0 0 325 327.9" style="enable-background:new 0 0 325 327.9;" xml:space="preserve">
<style type="text/css">
	.st0{fill:#F9BE37;}
</style>
<g>
	<path class="st0" d="M291.2,152v12c0,36.1-14.1,70-39.6,95.5c-25.5,25.5-59.4,39.5-95.5,39.5H156c-36.1,0-70-14.1-95.5-39.6
		c-25.5-25.5-39.5-59.5-39.5-95.6c0-36.1,14.1-70,39.6-95.5C86.1,42.8,120,28.8,156,28.8h0.1c19,0,37.5,3.9,54.9,11.7
		c3.1,1.4,4.5,5,3.1,8.1c-1,2.2-3.2,3.6-5.6,3.6c-0.9,0-1.7-0.2-2.5-0.5c-15.8-7.1-32.6-10.6-49.9-10.6H156
		c-32.8,0-63.6,12.8-86.8,35.9c-23.2,23.2-36,54-36,86.8c0,67.7,55,122.9,122.8,122.9h0.1c32.8,0,63.6-12.8,86.8-35.9
		c23.2-23.2,36-54,36-86.8v-12c0-3.4,2.8-6.2,6.2-6.2C288.4,145.9,291.2,148.6,291.2,152z"/>
	<path class="st0" d="M302.3,52.3L160.4,194.2c-1.2,1.2-2.7,1.8-4.4,1.8c-1.6,0-3.2-0.6-4.3-1.8L113,155.5c-2.4-2.4-2.4-6.3,0-8.7
		c1.2-1.2,2.7-1.8,4.3-1.8c1.6,0,3.2,0.6,4.3,1.8l34.3,34.3L293.6,43.6c1.2-1.2,2.7-1.8,4.4-1.8c1.6,0,3.2,0.6,4.3,1.8
		C304.7,46,304.7,49.9,302.3,52.3z"/>
</g>
</svg>
