<?xml version="1.0" encoding="utf-8"?>
<!-- Generator: Adobe Illustrator 27.0.1, SVG Export Plug-In . SVG Version: 6.00 Build 0)  -->
<svg version="1.1" id="Layer_1" xmlns="http://www.w3.org/2000/svg" xmlns:xlink="http://www.w3.org/1999/xlink" x="0px" y="0px"
	 viewBox="0 0 325 390.9" style="enable-background:new 0 0 325 390.9;" xml:space="preserve">
<style type="text/css">
	.st0{fill:#F9BE37;}
</style>
<g>
	<path class="st0" d="M226,255.4c19.7-18,31.3-43.5,31.3-70c0-52-42.5-94.5-94.5-94.5s-94.5,42.5-94.5,94.5
		c0,27.2,11.9,53.4,31.9,71c15,15,13.6,46.9,13.3,47.2c0,1.7,0.3,3.1,1.7,4.4c1,1,2.7,1.7,4.1,1.7h86.7c1.7,0,3.1-0.7,4.1-1.7
		c1-1,1.7-2.7,1.7-4.4c0-0.3-1.7-32.3,13.3-47.2C225.3,256.1,225.7,255.8,226,255.4z M217.2,247.6c-0.3,0.3-1,1-1,1.4
		c-13.3,14.3-15.6,37.7-16,48.9h-75.1c-0.3-11.2-2.7-35.7-17-50.3c-18-15.6-28.5-38.4-28.5-62.5c0-45.9,37-82.9,82.9-82.9
		s82.9,37,82.9,82.9C245.4,209.2,235.2,232,217.2,247.6z"/>
	<path class="st0" d="M162.4,115.1c-3.1,0-5.8,2.7-5.8,5.8c0,3.1,2.7,5.8,5.8,5.8c34.3,0,61.9,27.9,61.9,61.9c0,3.1,2.7,5.8,5.8,5.8
		c3.1,0,5.8-2.7,5.8-5.8C236.2,148,203.2,115.1,162.4,115.1z"/>
	<path class="st0" d="M214.4,330.5c0-7.8-6.5-14.3-14.3-14.3h-75.4c-7.8,0-14.3,6.5-14.3,14.3s6.5,14.3,14.3,14.3h75.1
		C208,344.5,214.4,338.3,214.4,330.5z M200.2,332.9h-75.4c-1.4,0-2.7-1-2.7-2.7s1-2.7,2.7-2.7h75.1c1.4,0,2.7,1,2.7,2.7
		S201.5,332.9,200.2,332.9z"/>
	<path class="st0" d="M188.9,350.6h-53c-7.8,0-14.3,6.5-14.3,14.3c0,7.8,6.5,14.3,14.3,14.3h53c7.8,0,14.3-6.5,14.3-14.3
		C203.2,356.7,196.8,350.6,188.9,350.6z M188.9,367.2h-53c-1.4,0-2.7-1-2.7-2.7s1-2.7,2.7-2.7h53c1.4,0,2.7,1,2.7,2.7
		S190.3,367.2,188.9,367.2z"/>
	<path class="st0" d="M168.2,57V17.5c0-3.1-2.7-5.8-5.8-5.8s-5.8,2.7-5.8,5.8V57c0,3.1,2.7,5.8,5.8,5.8
		C165.8,62.7,168.2,60,168.2,57z"/>
	<path class="st0" d="M258.6,41c-2.7-2-6.1-1-7.8,1.4L229,75c-2,2.7-1.4,6.5,1.4,8.2c1,0.7,2,1,3.1,1c2,0,3.7-1,4.8-2.7L260,48.8
		C262,46.4,261.3,42.7,258.6,41z"/>
	<path class="st0" d="M93.5,82.8c1,0,2-0.3,3.1-1c2.7-1.7,3.4-5.4,1.7-8.2l-21.1-33c-1.7-2.7-5.4-3.4-8.2-1.7
		c-2.7,1.7-3.4,5.4-1.7,8.2l21.1,33C89.7,82.1,91.4,82.8,93.5,82.8z"/>
	<path class="st0" d="M12.6,110.3L46.9,129c1,0.3,1.7,0.7,2.7,0.7c2,0,4.1-1,5.1-3.1c1.4-2.7,0.3-6.5-2.4-7.8L18,100.1
		c-2.7-1.4-6.5-0.3-7.8,2.4C8.5,105.2,9.5,109,12.6,110.3z"/>
	<path class="st0" d="M275.3,129.7c1,0,2-0.3,2.7-0.7l34.7-18.7c2.7-1.4,3.7-5.1,2.4-7.8c-1.4-2.7-5.1-3.7-7.8-2.4l-34.7,18.7
		c-2.7,1.4-3.7,5.1-2.4,7.8C271.2,128.7,273.2,129.7,275.3,129.7z"/>
</g>
</svg>
