<?xml version="1.0" encoding="utf-8"?>
<svg version="1.1" id="Layer_1" xmlns="http://www.w3.org/2000/svg" xmlns:xlink="http://www.w3.org/1999/xlink" x="0px"
  y="0px" viewBox="0 0 115.1 29.4" style="enable-background:new 0 0 115.1 29.4;" xml:space="preserve">
  <title>Lumag logo</title>
  <style type="text/css">
    .icon-logo-0 {
      fill: #FFBF3C;
    }

    .icon-logo-1 {
      fill: #404041;
    }
  </style>
  <g>
    <path class="icon-logo-0" d="M103.9,1.6H17.3C10.7,8,7.9,15.4,9.2,22.4c0.4,1.9,1,3.7,2,5.5h86.6c6.6-6.5,9.4-13.8,8-20.8
		C105.5,5.2,104.8,3.3,103.9,1.6z" />
    <path class="icon-logo-1" d="M73.9,6.3c-0.1-0.2-0.3-0.4-0.5-0.5c-0.6-0.5-1.6-0.7-2.9-0.7c-1,0-1.8,0.1-2.6,0.4c-0.5,0.2-0.9,0.4-1.2,0.7
		c-1,0.7-1.6,1.8-1.9,3.1l-0.6,2.7h4.1l0.6-2.7c0.1-0.4,0.2-0.7,0.3-0.8c0.1-0.2,0.3-0.3,0.6-0.3c0.3,0,0.4,0.1,0.5,0.3
		c0.1,0.2,0.1,0.5,0,0.8L70,10.6c-0.1,0.6-0.9,1.3-2.2,1.9c-0.2,0.1-0.4,0.2-0.6,0.3c-0.5,0.2-0.9,0.4-1.2,0.5
		c-0.9,0.4-1.5,0.9-2,1.5c-0.5,0.6-0.8,1.4-1,2.4L63,17.5l-0.8,3.6c-0.2,1-0.2,1.8,0.2,2.3c0.1,0.2,0.3,0.4,0.6,0.5
		c0.3,0.2,0.7,0.2,1.2,0.2c0.7,0,1.3-0.2,1.8-0.5c0.6-0.3,1.1-0.8,1.5-1.4h0.1l-0.1,0.3c0,0.2-0.1,0.4-0.1,0.6c0,0.2,0,0.4,0,0.7
		h4.1c0-0.4,0-0.7,0-1.1c0-0.4,0.1-0.8,0.2-1.3l1.7-7.7l0.8-3.5C74.5,8.4,74.5,7.1,73.9,6.3 M68,19.7c-0.1,0.3-0.2,0.5-0.3,0.7
		c0,0-0.1,0.1-0.1,0.1c-0.1,0.2-0.4,0.2-0.6,0.2c-0.3,0-0.4-0.1-0.5-0.2c-0.1-0.1-0.1-0.4,0-0.9l0.7-3c0.1-0.3,0.2-0.5,0.6-0.9
		c0.2-0.2,0.6-0.5,1-0.8c0.1-0.1,0.2-0.1,0.3-0.2L68,19.7z" />
    <path class="icon-logo-1" d="M63.8,8.4C64,7.3,64,6.5,63.7,6c-0.1-0.2-0.3-0.4-0.6-0.5c-0.3-0.1-0.7-0.2-1.2-0.2c-0.6,0-1.2,0.2-1.8,0.5
		C59.6,6,59,6.5,58.5,7.1h-0.1c-0.1-0.6-0.3-1.1-0.6-1.4c-0.3-0.3-0.8-0.5-1.4-0.5c-0.6,0-1.2,0.2-1.8,0.5c-0.6,0.3-1.1,0.8-1.5,1.4
		H53l0.3-1.5h-4l-2.7,12.2l-1.3,6.2h4l3.1-14.2c0.1-0.4,0.2-0.6,0.4-0.8c0.2-0.2,0.4-0.3,0.6-0.3c0.3,0,0.5,0.1,0.5,0.2
		c0.1,0.2,0.1,0.4,0,0.9l-3.1,14.2h4L58,9.7c0.1-0.4,0.2-0.6,0.3-0.8c0.2-0.2,0.4-0.3,0.6-0.3c0.3,0,0.4,0.1,0.5,0.2
		c0.1,0.2,0.1,0.4,0,0.9l-3.1,14.2h4.1l2.6-12L63.8,8.4z" />
    <path class="icon-logo-1" d="M48.2,5.5h-4.1l-3.1,14.3c-0.1,0.4-0.2,0.7-0.3,0.8c-0.1,0.2-0.3,0.3-0.6,0.3c-0.3,0-0.4-0.1-0.5-0.2
		c-0.1-0.2-0.1-0.4,0-0.8l3.1-14.3h-4.1l-2,9l-1.5,6.6c-0.2,1-0.2,1.8,0.2,2.3c0.2,0.4,0.7,0.6,1.2,0.7c0.2,0,0.4,0.1,0.6,0.1
		c0.6,0,1.2-0.1,1.8-0.4c0.5-0.3,1-0.8,1.5-1.4h0.1l-0.3,1.5h4l2.7-12.2L48.2,5.5z" />
    <path class="icon-logo-1" d="M74.3,27.9h4.1c0.7-0.2,1.3-0.5,1.8-0.9c0.9-0.8,1.6-2.1,2-4.1l3.8-17.3H82l-0.3,1.6h-0.1
		C81.4,6.5,81,6,80.6,5.7c-0.4-0.3-0.9-0.5-1.6-0.5c-0.8,0-1.6,0.2-2.1,0.7c-0.6,0.5-0.9,1.2-1.1,2.1l-2.4,10.8
		c-0.2,1.1-0.2,1.9,0.1,2.3c0.3,0.5,0.9,0.7,1.8,0.7c0.7,0,1.3-0.2,1.8-0.5c0.5-0.3,1-0.8,1.5-1.5h0.1l-0.9,4
		c-0.1,0.4-0.2,0.7-0.4,0.9c-0.2,0.2-0.4,0.3-0.6,0.3c-0.3,0-0.4-0.1-0.5-0.3c-0.1-0.2-0.1-0.5,0-0.9l0.3-1.4h-4L72.3,24
		c-0.3,1.3-0.1,2.4,0.6,3.1C73.2,27.4,73.7,27.7,74.3,27.9 M78.3,18.7c-0.3,0-0.5-0.1-0.5-0.2c-0.1-0.2-0.1-0.5,0-0.9l1.8-8
		c0.1-0.4,0.2-0.7,0.4-0.8c0.1-0.1,0.3-0.2,0.6-0.2c0.3,0,0.4,0.1,0.5,0.3c0.1,0.2,0.1,0.4,0,0.8l-1.8,8c-0.1,0.4-0.2,0.7-0.4,0.8
		C78.7,18.6,78.5,18.7,78.3,18.7z" />
    <polygon class="icon-logo-1" points="34,1.6 29.1,23.9 33.2,23.9 36.6,8.1 38.1,1.6 	" />
    <path class="icon-logo-1" d="M12.8,1.6c-8,7-12.3,15.1-11.2,23c0.2,1.2,0.4,2.3,0.8,3.4h7.3c-0.8-1.7-1.5-3.4-1.8-5.2
		C6.6,15.5,9.2,8.1,15.5,1.6H12.8 M113.5,5c-0.2-1.2-0.4-2.3-0.8-3.4h-7.4c0.9,1.7,1.5,3.4,1.8,5.3c1.4,7.1-1.3,14.5-7.5,21h2.8
		C110.3,20.9,114.6,12.8,113.5,5z" />
  </g>
</svg>