<?xml version="1.0" encoding="utf-8"?>
<!-- Generator: Adobe Illustrator 27.0.1, SVG Export Plug-In . SVG Version: 6.00 Build 0)  -->
<svg version="1.1" id="Isolation_Mode" xmlns="http://www.w3.org/2000/svg" xmlns:xlink="http://www.w3.org/1999/xlink" x="0px"
	 y="0px" viewBox="0 0 429.1 615.5" style="enable-background:new 0 0 429.1 615.5;" xml:space="preserve">
<style type="text/css">
	.st0{fill:url(#SVGID_1_);}
	.st1{fill:url(#SVGID_00000183250084650664145640000007572437371476584853_);}
	.st2{fill:url(#SVGID_00000168808496150757825790000016242569530643134897_);}
	.st3{opacity:0.45;}
	.st4{opacity:0.4;}
	.st5{opacity:0;fill:#F7F7F7;}
	.st6{opacity:4.032000e-03;fill:#F6F6F6;}
	.st7{opacity:8.065000e-03;fill:#F5F5F5;}
	.st8{opacity:1.209700e-02;fill:#F4F4F4;}
	.st9{opacity:1.612900e-02;fill:#F3F3F3;}
	.st10{opacity:2.016100e-02;fill:#F2F2F2;}
	.st11{opacity:2.419400e-02;fill:#F1F1F1;}
	.st12{opacity:2.822600e-02;fill:#F0F0F0;}
	.st13{opacity:3.225800e-02;fill:#EFEFEF;}
	.st14{opacity:3.629000e-02;fill:#EEEEEE;}
	.st15{opacity:4.032300e-02;fill:#EEEEEE;}
	.st16{opacity:4.435500e-02;fill:#EDEDED;}
	.st17{opacity:4.838700e-02;fill:#ECECEC;}
	.st18{opacity:5.241900e-02;fill:#EBEBEB;}
	.st19{opacity:5.645200e-02;fill:#EAEAEA;}
	.st20{opacity:6.048400e-02;fill:#E9E9E9;}
	.st21{opacity:6.451600e-02;fill:#E8E8E8;}
	.st22{opacity:6.854800e-02;fill:#E7E7E7;}
	.st23{opacity:7.258100e-02;fill:#E6E6E6;}
	.st24{opacity:7.661300e-02;fill:#E5E5E5;}
	.st25{opacity:8.064500e-02;fill:#E4E4E4;}
	.st26{opacity:8.467700e-02;fill:#E3E3E3;}
	.st27{opacity:8.871000e-02;fill:#E2E2E2;}
	.st28{opacity:9.274200e-02;fill:#E1E1E1;}
	.st29{opacity:9.677400e-02;fill:#E0E0E0;}
	.st30{opacity:0.1008;fill:#DFDFDF;}
	.st31{opacity:0.1048;fill:#DEDEDE;}
	.st32{opacity:0.1089;fill:#DDDDDD;}
	.st33{opacity:0.1129;fill:#DCDCDC;}
	.st34{opacity:0.1169;fill:#DBDBDB;}
	.st35{opacity:0.121;fill:#DADADA;}
	.st36{opacity:0.125;fill:#D9D9D9;}
	.st37{opacity:0.129;fill:#D8D8D8;}
	.st38{opacity:0.1331;fill:#D7D7D7;}
	.st39{opacity:0.1371;fill:#D6D6D6;}
	.st40{opacity:0.1411;fill:#D5D5D5;}
	.st41{opacity:0.1452;fill:#D4D4D4;}
	.st42{opacity:0.1492;fill:#D3D3D3;}
	.st43{opacity:0.1532;fill:#D2D2D2;}
	.st44{opacity:0.1573;fill:#D1D1D1;}
	.st45{opacity:0.1613;fill:#D0D0D0;}
	.st46{opacity:0.1653;fill:#CFCFCF;}
	.st47{opacity:0.1694;fill:#CECECE;}
	.st48{opacity:0.1734;fill:#CDCDCD;}
	.st49{opacity:0.1774;fill:#CCCCCC;}
	.st50{opacity:0.1815;fill:#CBCBCB;}
	.st51{opacity:0.1855;fill:#CACACA;}
	.st52{opacity:0.1895;fill:#C9C9C9;}
	.st53{opacity:0.1935;fill:#C8C8C8;}
	.st54{opacity:0.1976;fill:#C7C7C7;}
	.st55{opacity:0.2016;fill:#C6C6C6;}
	.st56{opacity:0.2056;fill:#C5C5C5;}
	.st57{opacity:0.2097;fill:#C4C4C4;}
	.st58{opacity:0.2137;fill:#C3C3C3;}
	.st59{opacity:0.2177;fill:#C2C2C2;}
	.st60{opacity:0.2218;fill:#C1C1C1;}
	.st61{opacity:0.2258;fill:#C0C0C0;}
	.st62{opacity:0.2298;fill:#BFBFBF;}
	.st63{opacity:0.2339;fill:#BEBEBE;}
	.st64{opacity:0.2379;fill:#BDBDBD;}
	.st65{opacity:0.2419;fill:#BCBCBC;}
	.st66{opacity:0.246;fill:#BBBBBB;}
	.st67{opacity:0.25;fill:#BABABA;}
	.st68{opacity:0.254;fill:#B9B9B9;}
	.st69{opacity:0.2581;fill:#B8B8B8;}
	.st70{opacity:0.2621;fill:#B7B7B7;}
	.st71{opacity:0.2661;fill:#B6B6B6;}
	.st72{opacity:0.2702;fill:#B5B5B5;}
	.st73{opacity:0.2742;fill:#B4B4B4;}
	.st74{opacity:0.2782;fill:#B3B3B3;}
	.st75{opacity:0.2823;fill:#B2B2B2;}
	.st76{opacity:0.2863;fill:#B2B2B2;}
	.st77{opacity:0.2903;fill:#B0B0B0;}
	.st78{opacity:0.2944;fill:#B0B0B0;}
	.st79{opacity:0.2984;fill:#AFAFAF;}
	.st80{opacity:0.3024;fill:#AEAEAE;}
	.st81{opacity:0.3065;fill:#ADADAD;}
	.st82{opacity:0.3105;fill:#ACACAC;}
	.st83{opacity:0.3145;fill:#ABABAB;}
	.st84{opacity:0.3185;fill:#AAAAAA;}
	.st85{opacity:0.3226;fill:#A9A9A9;}
	.st86{opacity:0.3266;fill:#A8A8A8;}
	.st87{opacity:0.3306;fill:#A7A7A7;}
	.st88{opacity:0.3347;fill:#A6A6A6;}
	.st89{opacity:0.3387;fill:#A4A4A4;}
	.st90{opacity:0.3427;fill:#A4A4A4;}
	.st91{opacity:0.3468;fill:#A2A2A2;}
	.st92{opacity:0.3508;fill:#A1A1A1;}
	.st93{opacity:0.3548;fill:#A0A0A0;}
	.st94{opacity:0.3589;fill:#9F9F9F;}
	.st95{opacity:0.3629;fill:#9E9E9E;}
	.st96{opacity:0.3669;fill:#9D9D9D;}
	.st97{opacity:0.371;fill:#9C9C9C;}
	.st98{opacity:0.375;fill:#9B9B9B;}
	.st99{opacity:0.379;fill:#9A9A9A;}
	.st100{opacity:0.3831;fill:#999999;}
	.st101{opacity:0.3871;fill:#989898;}
	.st102{opacity:0.3911;fill:#979797;}
	.st103{opacity:0.3952;fill:#969696;}
	.st104{opacity:0.3992;fill:#959595;}
	.st105{opacity:0.4032;fill:#949494;}
	.st106{opacity:0.4073;fill:#939393;}
	.st107{opacity:0.4113;fill:#929292;}
	.st108{opacity:0.4153;fill:#919191;}
	.st109{opacity:0.4194;fill:#909090;}
	.st110{opacity:0.4234;fill:#8F8F8F;}
	.st111{opacity:0.4274;fill:#8E8E8E;}
	.st112{opacity:0.4315;fill:#8D8D8D;}
	.st113{opacity:0.4355;fill:#8C8C8C;}
	.st114{opacity:0.4395;fill:#8B8B8B;}
	.st115{opacity:0.4435;fill:#8A8A8A;}
	.st116{opacity:0.4476;fill:#898989;}
	.st117{opacity:0.4516;fill:#888888;}
	.st118{opacity:0.4556;fill:#878787;}
	.st119{opacity:0.4597;fill:#868686;}
	.st120{opacity:0.4637;fill:#858585;}
	.st121{opacity:0.4677;fill:#848484;}
	.st122{opacity:0.4718;fill:#838383;}
	.st123{opacity:0.4758;fill:#828282;}
	.st124{opacity:0.4798;fill:#818181;}
	.st125{opacity:0.4839;fill:#808080;}
	.st126{opacity:0.4879;fill:#808080;}
	.st127{opacity:0.4919;fill:#7F7F7F;}
	.st128{opacity:0.496;fill:#7E7E7E;}
	.st129{opacity:0.5;fill:#7D7D7D;}
	.st130{opacity:0.504;fill:#7C7C7C;}
	.st131{opacity:0.5081;fill:#7B7B7B;}
	.st132{opacity:0.5121;fill:#7A7A7A;}
	.st133{opacity:0.5161;fill:#797979;}
	.st134{opacity:0.5202;fill:#787878;}
	.st135{opacity:0.5242;fill:#777777;}
	.st136{opacity:0.5282;fill:#767676;}
	.st137{opacity:0.5323;fill:#757575;}
	.st138{opacity:0.5363;fill:#747474;}
	.st139{opacity:0.5403;fill:#737373;}
	.st140{opacity:0.5444;fill:#727272;}
	.st141{opacity:0.5484;fill:#717171;}
	.st142{opacity:0.5524;fill:#707070;}
	.st143{opacity:0.5565;fill:#6E6E6E;}
	.st144{opacity:0.5605;fill:#6D6D6D;}
	.st145{opacity:0.5645;fill:#6C6C6C;}
	.st146{opacity:0.5685;fill:#6B6B6B;}
	.st147{opacity:0.5726;fill:#6A6A6A;}
	.st148{opacity:0.5766;fill:#696969;}
	.st149{opacity:0.5806;fill:#686868;}
	.st150{opacity:0.5847;fill:#676767;}
	.st151{opacity:0.5887;fill:#666666;}
	.st152{opacity:0.5927;fill:#656565;}
	.st153{opacity:0.5968;fill:#646464;}
	.st154{opacity:0.6008;fill:#636363;}
	.st155{opacity:0.6048;fill:#626262;}
	.st156{opacity:0.6089;fill:#616161;}
	.st157{opacity:0.6129;fill:#606060;}
	.st158{opacity:0.6169;fill:#5F5F5F;}
	.st159{opacity:0.621;fill:#5E5E5E;}
	.st160{opacity:0.625;fill:#5D5D5D;}
	.st161{opacity:0.629;fill:#5C5C5C;}
	.st162{opacity:0.6331;fill:#5B5B5B;}
	.st163{opacity:0.6371;fill:#5A5A5A;}
	.st164{opacity:0.6411;fill:#595959;}
	.st165{opacity:0.6452;fill:#575757;}
	.st166{opacity:0.6492;fill:#565656;}
	.st167{opacity:0.6532;fill:#555555;}
	.st168{opacity:0.6573;fill:#545454;}
	.st169{opacity:0.6613;fill:#535353;}
	.st170{opacity:0.6653;fill:#525252;}
	.st171{opacity:0.6694;fill:#515151;}
	.st172{opacity:0.6734;fill:#505050;}
	.st173{opacity:0.6774;fill:#4F4F4F;}
	.st174{opacity:0.6815;fill:#4E4E4E;}
	.st175{opacity:0.6855;fill:#4D4D4D;}
	.st176{opacity:0.6895;fill:#4C4C4C;}
	.st177{opacity:0.6935;fill:#4B4B4B;}
	.st178{opacity:0.6976;fill:#4A4A4A;}
	.st179{opacity:0.7016;fill:#494949;}
	.st180{opacity:0.7056;fill:#474747;}
	.st181{opacity:0.7097;fill:#464646;}
	.st182{opacity:0.7137;fill:#454545;}
	.st183{opacity:0.7177;fill:#444444;}
	.st184{opacity:0.7218;fill:#434343;}
	.st185{opacity:0.7258;fill:#424242;}
	.st186{opacity:0.7298;fill:#414141;}
	.st187{opacity:0.7339;fill:#404040;}
	.st188{opacity:0.7379;fill:#3F3F3F;}
	.st189{opacity:0.7419;fill:#3E3E3E;}
	.st190{opacity:0.746;fill:#3D3D3D;}
	.st191{opacity:0.75;fill:#3C3C3C;}
	.st192{opacity:0.754;fill:#3B3B3B;}
	.st193{opacity:0.7581;fill:#393939;}
	.st194{opacity:0.7621;fill:#383838;}
	.st195{opacity:0.7661;fill:#373737;}
	.st196{opacity:0.7702;fill:#363636;}
	.st197{opacity:0.7742;fill:#353535;}
	.st198{opacity:0.7782;fill:#343434;}
	.st199{opacity:0.7823;fill:#333333;}
	.st200{opacity:0.7863;fill:#323232;}
	.st201{opacity:0.7903;fill:#313131;}
	.st202{opacity:0.7944;fill:#303030;}
	.st203{opacity:0.7984;fill:#2E2E2E;}
	.st204{opacity:0.8024;fill:#2D2D2D;}
	.st205{opacity:0.8065;fill:#2C2C2C;}
	.st206{opacity:0.8105;fill:#2B2B2B;}
	.st207{opacity:0.8145;fill:#2A2A2A;}
	.st208{opacity:0.8185;fill:#292929;}
	.st209{opacity:0.8226;fill:#282828;}
	.st210{opacity:0.8266;fill:#272727;}
	.st211{opacity:0.8306;fill:#262626;}
	.st212{opacity:0.8347;fill:#242424;}
	.st213{opacity:0.8387;fill:#232323;}
	.st214{opacity:0.8427;fill:#222222;}
	.st215{opacity:0.8468;fill:#212121;}
	.st216{opacity:0.8508;fill:#202020;}
	.st217{opacity:0.8548;fill:#1F1F1F;}
	.st218{opacity:0.8589;fill:#1E1E1E;}
	.st219{opacity:0.8629;fill:#1C1C1C;}
	.st220{opacity:0.8669;fill:#1B1B1B;}
	.st221{opacity:0.871;fill:#1A1A1A;}
	.st222{opacity:0.875;fill:#191919;}
	.st223{opacity:0.879;fill:#181818;}
	.st224{opacity:0.8831;fill:#171717;}
	.st225{opacity:0.8871;fill:#161616;}
	.st226{opacity:0.8911;fill:#141414;}
	.st227{opacity:0.8952;fill:#131313;}
	.st228{opacity:0.8992;fill:#121212;}
	.st229{opacity:0.9032;fill:#111111;}
	.st230{opacity:0.9073;fill:#101010;}
	.st231{opacity:0.9113;fill:#0E0E0E;}
	.st232{opacity:0.9153;fill:#0D0D0D;}
	.st233{opacity:0.9194;fill:#0C0C0C;}
	.st234{opacity:0.9234;fill:#0B0B0B;}
	.st235{opacity:0.9274;fill:#0A0A0A;}
	.st236{opacity:0.9315;fill:#090909;}
	.st237{opacity:0.9355;fill:#070707;}
	.st238{opacity:0.9395;fill:#060606;}
	.st239{opacity:0.9435;fill:#060606;}
	.st240{opacity:0.9476;fill:#050505;}
	.st241{opacity:0.9516;fill:#040404;}
	.st242{opacity:0.9556;fill:#030303;}
	.st243{opacity:0.9597;fill:#030303;}
	.st244{opacity:0.9637;fill:#020202;}
	.st245{opacity:0.9677;fill:#020202;}
	.st246{opacity:0.9718;fill:#010101;}
	.st247{opacity:0.9758;fill:#010101;}
	.st248{opacity:0.9798;fill:#010101;}
	.st249{opacity:0.9839;}
	.st250{opacity:0.9879;}
	.st251{opacity:0.9919;}
	.st252{opacity:0.996;}
	.st253{fill:#404041;}
</style>
<g>
	<g>
		<linearGradient id="SVGID_1_" gradientUnits="userSpaceOnUse" x1="214.5629" y1="18.7165" x2="214.5629" y2="617.3982">
			<stop  offset="0" style="stop-color:#FFD03F"/>
			<stop  offset="0.1968" style="stop-color:#FDCA3A"/>
			<stop  offset="0.4642" style="stop-color:#F6B82B"/>
			<stop  offset="0.7709" style="stop-color:#EB9C12"/>
			<stop  offset="0.8989" style="stop-color:#E58E06"/>
			<stop  offset="1" style="stop-color:#DF8800"/>
		</linearGradient>
		<polygon class="st0" points="214.6,578.7 365.2,297.4 64,297.4 		"/>
		
			<linearGradient id="SVGID_00000076570509021170605740000010999012285696812693_" gradientUnits="userSpaceOnUse" x1="214.5629" y1="18.7165" x2="214.5629" y2="617.3976">
			<stop  offset="0" style="stop-color:#FFD03F"/>
			<stop  offset="0.1968" style="stop-color:#FDCA3A"/>
			<stop  offset="0.4642" style="stop-color:#F6B82B"/>
			<stop  offset="0.7709" style="stop-color:#EB9C12"/>
			<stop  offset="0.8989" style="stop-color:#E58E06"/>
			<stop  offset="1" style="stop-color:#DF8800"/>
		</linearGradient>
		<circle style="fill:url(#SVGID_00000076570509021170605740000010999012285696812693_);" cx="214.6" cy="213.6" r="172.3"/>
		
			<linearGradient id="SVGID_00000148653069849563432160000011151013104539399829_" gradientUnits="userSpaceOnUse" x1="214.5629" y1="361.1696" x2="214.5629" y2="68.4044">
			<stop  offset="0" style="stop-color:#FFD03F"/>
			<stop  offset="0.1968" style="stop-color:#FDCA3A"/>
			<stop  offset="0.4642" style="stop-color:#F6B82B"/>
			<stop  offset="0.7709" style="stop-color:#EB9C12"/>
			<stop  offset="0.8989" style="stop-color:#E58E06"/>
			<stop  offset="1" style="stop-color:#DF8800"/>
		</linearGradient>
		<circle style="fill:url(#SVGID_00000148653069849563432160000011151013104539399829_);" cx="214.6" cy="213.6" r="129.7"/>
	</g>
	<g class="st3">
		<g class="st4">
			<ellipse class="st5" cx="218.6" cy="575.8" rx="104" ry="24.7"/>
			<ellipse class="st6" cx="218.5" cy="575.8" rx="103.6" ry="24.6"/>
			<path class="st7" d="M321.7,575.8c0,13.5-46.2,24.5-103.2,24.5c-57,0-103.2-11-103.2-24.5c0-13.5,46.2-24.5,103.2-24.5
				C275.5,551.3,321.7,562.3,321.7,575.8z"/>
			<ellipse class="st8" cx="218.5" cy="575.8" rx="102.8" ry="24.4"/>
			<ellipse class="st9" cx="218.5" cy="575.8" rx="102.3" ry="24.3"/>
			<ellipse class="st10" cx="218.5" cy="575.8" rx="101.9" ry="24.2"/>
			<ellipse class="st11" cx="218.5" cy="575.8" rx="101.5" ry="24.1"/>
			<ellipse class="st12" cx="218.5" cy="575.8" rx="101.1" ry="24"/>
			<ellipse class="st13" cx="218.4" cy="575.8" rx="100.7" ry="23.9"/>
			<ellipse class="st14" cx="218.4" cy="575.8" rx="100.3" ry="23.8"/>
			<ellipse class="st15" cx="218.4" cy="575.8" rx="99.9" ry="23.7"/>
			<ellipse class="st16" cx="218.4" cy="575.8" rx="99.4" ry="23.6"/>
			<ellipse class="st17" cx="218.4" cy="575.8" rx="99" ry="23.5"/>
			<path class="st18" d="M317,575.9c0,12.9-44.2,23.4-98.6,23.4s-98.6-10.5-98.6-23.4s44.2-23.4,98.6-23.4S317,562.9,317,575.9z"/>
			<ellipse class="st19" cx="218.3" cy="575.9" rx="98.2" ry="23.3"/>
			<ellipse class="st20" cx="218.3" cy="575.9" rx="97.8" ry="23.2"/>
			<ellipse class="st21" cx="218.3" cy="575.9" rx="97.4" ry="23.1"/>
			<ellipse class="st22" cx="218.3" cy="575.9" rx="97" ry="23"/>
			<ellipse class="st23" cx="218.3" cy="575.9" rx="96.6" ry="22.9"/>
			<ellipse class="st24" cx="218.3" cy="575.9" rx="96.1" ry="22.8"/>
			<path class="st25" d="M314,575.9c0,12.5-42.9,22.7-95.7,22.7s-95.7-10.2-95.7-22.7c0-12.5,42.9-22.7,95.7-22.7
				S314,563.4,314,575.9z"/>
			<ellipse class="st26" cx="218.2" cy="575.9" rx="95.3" ry="22.6"/>
			<ellipse class="st27" cx="218.2" cy="575.9" rx="94.9" ry="22.5"/>
			<ellipse class="st28" cx="218.2" cy="575.9" rx="94.5" ry="22.4"/>
			<ellipse class="st29" cx="218.2" cy="575.9" rx="94.1" ry="22.3"/>
			<ellipse class="st30" cx="218.2" cy="575.9" rx="93.7" ry="22.2"/>
			<ellipse class="st31" cx="218.2" cy="575.9" rx="93.3" ry="22.1"/>
			<ellipse class="st32" cx="218.1" cy="575.9" rx="92.8" ry="22"/>
			<ellipse class="st33" cx="218.1" cy="576" rx="92.4" ry="21.9"/>
			<ellipse class="st34" cx="218.1" cy="576" rx="92" ry="21.9"/>
			<ellipse class="st35" cx="218.1" cy="576" rx="91.6" ry="21.8"/>
			<path class="st36" d="M309.3,576c0,12-40.8,21.7-91.2,21.7s-91.2-9.7-91.2-21.7c0-12,40.8-21.7,91.2-21.7S309.3,564,309.3,576z"
				/>
			<ellipse class="st37" cx="218.1" cy="576" rx="90.8" ry="21.6"/>
			<ellipse class="st38" cx="218.1" cy="576" rx="90.4" ry="21.5"/>
			<ellipse class="st39" cx="218" cy="576" rx="89.9" ry="21.4"/>
			<ellipse class="st40" cx="218" cy="576" rx="89.5" ry="21.3"/>
			<ellipse class="st41" cx="218" cy="576" rx="89.1" ry="21.2"/>
			<ellipse class="st42" cx="218" cy="576" rx="88.7" ry="21.1"/>
			<ellipse class="st43" cx="218" cy="576" rx="88.3" ry="21"/>
			<ellipse class="st44" cx="218" cy="576" rx="87.9" ry="20.9"/>
			<ellipse class="st45" cx="218" cy="576" rx="87.5" ry="20.8"/>
			<ellipse class="st46" cx="217.9" cy="576" rx="87.1" ry="20.7"/>
			<ellipse class="st47" cx="217.9" cy="576" rx="86.6" ry="20.6"/>
			<ellipse class="st48" cx="217.9" cy="576.1" rx="86.2" ry="20.5"/>
			<ellipse class="st49" cx="217.9" cy="576.1" rx="85.8" ry="20.4"/>
			<ellipse class="st50" cx="217.9" cy="576.1" rx="85.4" ry="20.3"/>
			<ellipse class="st51" cx="217.9" cy="576.1" rx="85" ry="20.2"/>
			<ellipse class="st52" cx="217.8" cy="576.1" rx="84.6" ry="20.1"/>
			<ellipse class="st53" cx="217.8" cy="576.1" rx="84.2" ry="20"/>
			<ellipse class="st54" cx="217.8" cy="576.1" rx="83.7" ry="19.9"/>
			<ellipse class="st55" cx="217.8" cy="576.1" rx="83.3" ry="19.8"/>
			<ellipse class="st56" cx="217.8" cy="576.1" rx="82.9" ry="19.7"/>
			<path class="st57" d="M300.3,576.1c0,10.8-36.9,19.6-82.5,19.6c-45.6,0-82.5-8.8-82.5-19.6c0-10.8,36.9-19.6,82.5-19.6
				C263.3,556.5,300.3,565.3,300.3,576.1z"/>
			<ellipse class="st58" cx="217.8" cy="576.1" rx="82.1" ry="19.5"/>
			<ellipse class="st59" cx="217.7" cy="576.1" rx="81.7" ry="19.4"/>
			<ellipse class="st60" cx="217.7" cy="576.1" rx="81.3" ry="19.3"/>
			<ellipse class="st61" cx="217.7" cy="576.1" rx="80.9" ry="19.2"/>
			<ellipse class="st62" cx="217.7" cy="576.1" rx="80.4" ry="19.1"/>
			<ellipse class="st63" cx="217.7" cy="576.2" rx="80" ry="19"/>
			<ellipse class="st64" cx="217.7" cy="576.2" rx="79.6" ry="18.9"/>
			<ellipse class="st65" cx="217.6" cy="576.2" rx="79.2" ry="18.9"/>
			<ellipse class="st66" cx="217.6" cy="576.2" rx="78.8" ry="18.8"/>
			<ellipse class="st67" cx="217.6" cy="576.2" rx="78.4" ry="18.7"/>
			<ellipse class="st68" cx="217.6" cy="576.2" rx="78" ry="18.6"/>
			<ellipse class="st69" cx="217.6" cy="576.2" rx="77.6" ry="18.5"/>
			<path class="st70" d="M294.7,576.2c0,10.1-34.5,18.4-77.1,18.4c-42.6,0-77.1-8.2-77.1-18.4c0-10.1,34.5-18.4,77.1-18.4
				C260.2,557.8,294.7,566.1,294.7,576.2z"/>
			<ellipse class="st71" cx="217.6" cy="576.2" rx="76.7" ry="18.3"/>
			<ellipse class="st72" cx="217.5" cy="576.2" rx="76.3" ry="18.2"/>
			<ellipse class="st73" cx="217.5" cy="576.2" rx="75.9" ry="18.1"/>
			<path class="st74" d="M293,576.2c0,9.9-33.8,18-75.5,18s-75.5-8.1-75.5-18c0-9.9,33.8-18,75.5-18S293,566.3,293,576.2z"/>
			<ellipse class="st75" cx="217.5" cy="576.2" rx="75.1" ry="17.9"/>
			<ellipse class="st76" cx="217.5" cy="576.2" rx="74.7" ry="17.8"/>
			<ellipse class="st77" cx="217.5" cy="576.3" rx="74.2" ry="17.7"/>
			<ellipse class="st78" cx="217.4" cy="576.3" rx="73.8" ry="17.6"/>
			<ellipse class="st79" cx="217.4" cy="576.3" rx="73.4" ry="17.5"/>
			<path class="st80" d="M290.4,576.3c0,9.6-32.7,17.4-73,17.4s-73-7.8-73-17.4c0-9.6,32.7-17.4,73-17.4S290.4,566.7,290.4,576.3z"
				/>
			<ellipse class="st81" cx="217.4" cy="576.3" rx="72.6" ry="17.3"/>
			<ellipse class="st82" cx="217.4" cy="576.3" rx="72.2" ry="17.2"/>
			<path class="st83" d="M289.1,576.3c0,9.5-32.1,17.1-71.8,17.1c-39.6,0-71.8-7.7-71.8-17.1c0-9.5,32.1-17.1,71.8-17.1
				C257,559.2,289.1,566.8,289.1,576.3z"/>
			<ellipse class="st84" cx="217.4" cy="576.3" rx="71.4" ry="17"/>
			<ellipse class="st85" cx="217.3" cy="576.3" rx="70.9" ry="16.9"/>
			<ellipse class="st86" cx="217.3" cy="576.3" rx="70.5" ry="16.8"/>
			<ellipse class="st87" cx="217.3" cy="576.3" rx="70.1" ry="16.7"/>
			<ellipse class="st88" cx="217.3" cy="576.3" rx="69.7" ry="16.6"/>
			<path class="st89" d="M286.6,576.3c0,9.1-31,16.5-69.3,16.5c-38.3,0-69.3-7.4-69.3-16.5c0-9.1,31-16.5,69.3-16.5
				C255.5,559.8,286.6,567.2,286.6,576.3z"/>
			<ellipse class="st90" cx="217.3" cy="576.3" rx="68.9" ry="16.4"/>
			<ellipse class="st91" cx="217.2" cy="576.3" rx="68.5" ry="16.3"/>
			<ellipse class="st92" cx="217.2" cy="576.4" rx="68" ry="16.2"/>
			<ellipse class="st93" cx="217.2" cy="576.4" rx="67.6" ry="16.1"/>
			<path class="st94" d="M284.4,576.4c0,8.9-30.1,16-67.2,16s-67.2-7.2-67.2-16c0-8.9,30.1-16,67.2-16S284.4,567.5,284.4,576.4z"/>
			<ellipse class="st95" cx="217.2" cy="576.4" rx="66.8" ry="16"/>
			<ellipse class="st96" cx="217.2" cy="576.4" rx="66.4" ry="15.9"/>
			<path class="st97" d="M283.1,576.4c0,8.7-29.5,15.8-66,15.8c-36.4,0-66-7.1-66-15.8c0-8.7,29.5-15.8,66-15.8
				C253.6,560.6,283.1,567.7,283.1,576.4z"/>
			<ellipse class="st98" cx="217.1" cy="576.4" rx="65.6" ry="15.7"/>
			<path class="st99" d="M282.3,576.4c0,8.6-29.2,15.6-65.2,15.6c-36,0-65.2-7-65.2-15.6c0-8.6,29.2-15.6,65.2-15.6
				C253.1,560.8,282.3,567.8,282.3,576.4z"/>
			<ellipse class="st100" cx="217.1" cy="576.4" rx="64.7" ry="15.5"/>
			<ellipse class="st101" cx="217.1" cy="576.4" rx="64.3" ry="15.4"/>
			<ellipse class="st102" cx="217.1" cy="576.4" rx="63.9" ry="15.3"/>
			<ellipse class="st103" cx="217.1" cy="576.4" rx="63.5" ry="15.2"/>
			<ellipse class="st104" cx="217" cy="576.4" rx="63.1" ry="15.1"/>
			<ellipse class="st105" cx="217" cy="576.4" rx="62.7" ry="15"/>
			<path class="st106" d="M279.3,576.4c0,8.2-27.9,14.9-62.3,14.9c-34.4,0-62.3-6.7-62.3-14.9c0-8.2,27.9-14.9,62.3-14.9
				C251.4,561.6,279.3,568.2,279.3,576.4z"/>
			<ellipse class="st107" cx="217" cy="576.5" rx="61.9" ry="14.8"/>
			<ellipse class="st108" cx="217" cy="576.5" rx="61.4" ry="14.7"/>
			<ellipse class="st109" cx="217" cy="576.5" rx="61" ry="14.6"/>
			<ellipse class="st110" cx="217" cy="576.5" rx="60.6" ry="14.5"/>
			<ellipse class="st111" cx="216.9" cy="576.5" rx="60.2" ry="14.4"/>
			<path class="st112" d="M276.7,576.5c0,7.9-26.8,14.3-59.8,14.3s-59.8-6.4-59.8-14.3c0-7.9,26.8-14.3,59.8-14.3
				S276.7,568.6,276.7,576.5z"/>
			<ellipse class="st113" cx="216.9" cy="576.5" rx="59.4" ry="14.2"/>
			<ellipse class="st114" cx="216.9" cy="576.5" rx="59" ry="14.1"/>
			<ellipse class="st115" cx="216.9" cy="576.5" rx="58.5" ry="14"/>
			<ellipse class="st116" cx="216.9" cy="576.5" rx="58.1" ry="13.9"/>
			<ellipse class="st117" cx="216.9" cy="576.5" rx="57.7" ry="13.8"/>
			<ellipse class="st118" cx="216.8" cy="576.5" rx="57.3" ry="13.7"/>
			<ellipse class="st119" cx="216.8" cy="576.5" rx="56.9" ry="13.6"/>
			<ellipse class="st120" cx="216.8" cy="576.5" rx="56.5" ry="13.5"/>
			<ellipse class="st121" cx="216.8" cy="576.5" rx="56.1" ry="13.4"/>
			<path class="st122" d="M272.4,576.6c0,7.4-24.9,13.3-55.7,13.3s-55.7-6-55.7-13.3c0-7.4,24.9-13.3,55.7-13.3
				S272.4,569.2,272.4,576.6z"/>
			<ellipse class="st123" cx="216.8" cy="576.6" rx="55.2" ry="13.2"/>
			<ellipse class="st124" cx="216.7" cy="576.6" rx="54.8" ry="13.1"/>
			<ellipse class="st125" cx="216.7" cy="576.6" rx="54.4" ry="13"/>
			<ellipse class="st126" cx="216.7" cy="576.6" rx="54" ry="13"/>
			<ellipse class="st127" cx="216.7" cy="576.6" rx="53.6" ry="12.9"/>
			<ellipse class="st128" cx="216.7" cy="576.6" rx="53.2" ry="12.8"/>
			<ellipse class="st129" cx="216.7" cy="576.6" rx="52.8" ry="12.7"/>
			<path class="st130" d="M269,576.6c0,6.9-23.4,12.6-52.3,12.6c-28.9,0-52.3-5.6-52.3-12.6c0-6.9,23.4-12.6,52.3-12.6
				C245.6,564,269,569.7,269,576.6z"/>
			<ellipse class="st131" cx="216.6" cy="576.6" rx="51.9" ry="12.5"/>
			<path class="st132" d="M268.1,576.6c0,6.8-23.1,12.4-51.5,12.4c-28.5,0-51.5-5.5-51.5-12.4c0-6.8,23.1-12.4,51.5-12.4
				C245.1,564.2,268.1,569.8,268.1,576.6z"/>
			<path class="st133" d="M267.7,576.6c0,6.8-22.9,12.3-51.1,12.3c-28.2,0-51.1-5.5-51.1-12.3c0-6.8,22.9-12.3,51.1-12.3
				C244.8,564.3,267.7,569.8,267.7,576.6z"/>
			<ellipse class="st134" cx="216.6" cy="576.6" rx="50.7" ry="12.2"/>
			<path class="st135" d="M266.9,576.6c0,6.7-22.5,12.1-50.3,12.1c-27.8,0-50.3-5.4-50.3-12.1c0-6.7,22.5-12.1,50.3-12.1
				C244.3,564.6,266.9,570,266.9,576.6z"/>
			<ellipse class="st136" cx="216.6" cy="576.6" rx="49.9" ry="12"/>
			<path class="st137" d="M266,576.7c0,6.6-22.1,11.9-49.5,11.9s-49.5-5.3-49.5-11.9c0-6.6,22.1-11.9,49.5-11.9S266,570.1,266,576.7
				z"/>
			<ellipse class="st138" cx="216.5" cy="576.7" rx="49" ry="11.8"/>
			<path class="st139" d="M265.1,576.7c0,6.5-21.8,11.7-48.6,11.7c-26.9,0-48.6-5.2-48.6-11.7c0-6.5,21.8-11.7,48.6-11.7
				C243.4,565,265.1,570.2,265.1,576.7z"/>
			<path class="st140" d="M264.7,576.7c0,6.4-21.6,11.6-48.2,11.6s-48.2-5.2-48.2-11.6c0-6.4,21.6-11.6,48.2-11.6
				S264.7,570.3,264.7,576.7z"/>
			<path class="st141" d="M264.3,576.7c0,6.4-21.4,11.5-47.8,11.5c-26.4,0-47.8-5.1-47.8-11.5c0-6.4,21.4-11.5,47.8-11.5
				C242.9,565.2,264.3,570.3,264.3,576.7z"/>
			<path class="st142" d="M263.9,576.7c0,6.3-21.2,11.4-47.4,11.4s-47.4-5.1-47.4-11.4c0-6.3,21.2-11.4,47.4-11.4
				S263.9,570.4,263.9,576.7z"/>
			<ellipse class="st143" cx="216.5" cy="576.7" rx="47" ry="11.3"/>
			<ellipse class="st144" cx="216.4" cy="576.7" rx="46.6" ry="11.2"/>
			<path class="st145" d="M262.6,576.7c0,6.1-20.7,11.1-46.2,11.1c-25.5,0-46.2-5-46.2-11.1c0-6.1,20.7-11.1,46.2-11.1
				C241.9,565.6,262.6,570.6,262.6,576.7z"/>
			<path class="st146" d="M262.1,576.7c0,6.1-20.5,11-45.7,11c-25.3,0-45.7-4.9-45.7-11c0-6.1,20.5-11,45.7-11
				C241.7,565.7,262.1,570.6,262.1,576.7z"/>
			<path class="st147" d="M261.7,576.7c0,6-20.3,10.9-45.3,10.9s-45.3-4.9-45.3-10.9c0-6,20.3-10.9,45.3-10.9
				S261.7,570.7,261.7,576.7z"/>
			<path class="st148" d="M261.3,576.7c0,6-20.1,10.8-44.9,10.8s-44.9-4.8-44.9-10.8c0-6,20.1-10.8,44.9-10.8
				S261.3,570.7,261.3,576.7z"/>
			<ellipse class="st149" cx="216.4" cy="576.7" rx="44.5" ry="10.7"/>
			<path class="st150" d="M260.4,576.7c0,5.9-19.7,10.6-44.1,10.6s-44.1-4.8-44.1-10.6c0-5.9,19.7-10.6,44.1-10.6
				S260.4,570.9,260.4,576.7z"/>
			<ellipse class="st151" cx="216.3" cy="576.7" rx="43.7" ry="10.5"/>
			<path class="st152" d="M259.6,576.8c0,5.8-19.4,10.4-43.3,10.4c-23.9,0-43.3-4.7-43.3-10.4c0-5.8,19.4-10.4,43.3-10.4
				C240.2,566.3,259.6,571,259.6,576.8z"/>
			<path class="st153" d="M259.1,576.8c0,5.7-19.2,10.3-42.8,10.3c-23.7,0-42.8-4.6-42.8-10.3c0-5.7,19.2-10.3,42.8-10.3
				C240,566.4,259.1,571,259.1,576.8z"/>
			<path class="st154" d="M258.7,576.8c0,5.7-19,10.2-42.4,10.2c-23.4,0-42.4-4.6-42.4-10.2c0-5.7,19-10.2,42.4-10.2
				C239.7,566.5,258.7,571.1,258.7,576.8z"/>
			<ellipse class="st155" cx="216.3" cy="576.8" rx="42" ry="10.1"/>
			<ellipse class="st156" cx="216.3" cy="576.8" rx="41.6" ry="10.1"/>
			<ellipse class="st157" cx="216.2" cy="576.8" rx="41.2" ry="10"/>
			<ellipse class="st158" cx="216.2" cy="576.8" rx="40.8" ry="9.9"/>
			<path class="st159" d="M256.6,576.8c0,5.4-18.1,9.8-40.4,9.8c-22.3,0-40.4-4.4-40.4-9.8c0-5.4,18.1-9.8,40.4-9.8
				C238.5,567,256.6,571.4,256.6,576.8z"/>
			<ellipse class="st160" cx="216.2" cy="576.8" rx="40" ry="9.7"/>
			<path class="st161" d="M255.7,576.8c0,5.3-17.7,9.6-39.5,9.6s-39.5-4.3-39.5-9.6c0-5.3,17.7-9.6,39.5-9.6
				S255.7,571.5,255.7,576.8z"/>
			<path class="st162" d="M255.3,576.8c0,5.2-17.5,9.5-39.1,9.5s-39.1-4.2-39.1-9.5c0-5.2,17.5-9.5,39.1-9.5
				S255.3,571.6,255.3,576.8z"/>
			<ellipse class="st163" cx="216.1" cy="576.8" rx="38.7" ry="9.4"/>
			<path class="st164" d="M254.4,576.8c0,5.1-17.1,9.3-38.3,9.3s-38.3-4.2-38.3-9.3c0-5.1,17.1-9.3,38.3-9.3
				S254.4,571.7,254.4,576.8z"/>
			<path class="st165" d="M254,576.8c0,5.1-17,9.2-37.9,9.2c-20.9,0-37.9-4.1-37.9-9.2c0-5.1,17-9.2,37.9-9.2
				C237,567.7,254,571.8,254,576.8z"/>
			<path class="st166" d="M253.6,576.8c0,5-16.8,9.1-37.5,9.1c-20.7,0-37.5-4.1-37.5-9.1c0-5,16.8-9.1,37.5-9.1
				C236.8,567.8,253.6,571.8,253.6,576.8z"/>
			<ellipse class="st167" cx="216.1" cy="576.9" rx="37.1" ry="9"/>
			<path class="st168" d="M252.7,576.9c0,4.9-16.4,8.9-36.6,8.9c-20.2,0-36.6-4-36.6-8.9c0-4.9,16.4-8.9,36.6-8.9
				C236.3,568,252.7,571.9,252.7,576.9z"/>
			<ellipse class="st169" cx="216.1" cy="576.9" rx="36.2" ry="8.8"/>
			<ellipse class="st170" cx="216" cy="576.9" rx="35.8" ry="8.7"/>
			<ellipse class="st171" cx="216" cy="576.9" rx="35.4" ry="8.6"/>
			<ellipse class="st172" cx="216" cy="576.9" rx="35" ry="8.5"/>
			<ellipse class="st173" cx="216" cy="576.9" rx="34.6" ry="8.4"/>
			<ellipse class="st174" cx="216" cy="576.9" rx="34.2" ry="8.3"/>
			<ellipse class="st175" cx="216" cy="576.9" rx="33.8" ry="8.2"/>
			<path class="st176" d="M249.3,576.9c0,4.5-14.9,8.1-33.3,8.1c-18.4,0-33.3-3.6-33.3-8.1c0-4.5,14.9-8.1,33.3-8.1
				C234.4,568.8,249.3,572.4,249.3,576.9z"/>
			<ellipse class="st177" cx="215.9" cy="576.9" rx="32.9" ry="8"/>
			<path class="st178" d="M248.4,576.9c0,4.4-14.6,7.9-32.5,7.9s-32.5-3.5-32.5-7.9c0-4.4,14.6-7.9,32.5-7.9
				S248.4,572.6,248.4,576.9z"/>
			<path class="st179" d="M248,576.9c0,4.3-14.4,7.8-32.1,7.8c-17.7,0-32.1-3.5-32.1-7.8c0-4.3,14.4-7.8,32.1-7.8
				C233.6,569.1,248,572.6,248,576.9z"/>
			<path class="st180" d="M247.6,576.9c0,4.3-14.2,7.7-31.7,7.7s-31.7-3.5-31.7-7.7c0-4.3,14.2-7.7,31.7-7.7
				S247.6,572.7,247.6,576.9z"/>
			<path class="st181" d="M247.2,576.9c0,4.2-14,7.6-31.3,7.6c-17.3,0-31.3-3.4-31.3-7.6c0-4.2,14-7.6,31.3-7.6
				C233.1,569.3,247.2,572.7,247.2,576.9z"/>
			<path class="st182" d="M246.7,577c0,4.2-13.8,7.5-30.9,7.5c-17,0-30.9-3.4-30.9-7.5c0-4.2,13.8-7.5,30.9-7.5
				C232.9,569.4,246.7,572.8,246.7,577z"/>
			<ellipse class="st183" cx="215.8" cy="577" rx="30.5" ry="7.4"/>
			<path class="st184" d="M245.9,577c0,4.1-13.4,7.3-30,7.3c-16.6,0-30-3.3-30-7.3c0-4.1,13.4-7.3,30-7.3
				C232.4,569.6,245.9,572.9,245.9,577z"/>
			<path class="st185" d="M245.4,577c0,4-13.3,7.2-29.6,7.2c-16.4,0-29.6-3.2-29.6-7.2c0-4,13.3-7.2,29.6-7.2
				C232.2,569.7,245.4,573,245.4,577z"/>
			<path class="st186" d="M245,577c0,3.9-13.1,7.2-29.2,7.2s-29.2-3.2-29.2-7.2c0-3.9,13.1-7.2,29.2-7.2S245,573,245,577z"/>
			<path class="st187" d="M244.6,577c0,3.9-12.9,7.1-28.8,7.1S187,580.9,187,577c0-3.9,12.9-7.1,28.8-7.1S244.6,573.1,244.6,577z"/>
			<ellipse class="st188" cx="215.8" cy="577" rx="28.4" ry="7"/>
			<path class="st189" d="M243.7,577c0,3.8-12.5,6.9-28,6.9s-28-3.1-28-6.9c0-3.8,12.5-6.9,28-6.9S243.7,573.2,243.7,577z"/>
			<ellipse class="st190" cx="215.7" cy="577" rx="27.6" ry="6.8"/>
			<ellipse class="st191" cx="215.7" cy="577" rx="27.1" ry="6.7"/>
			<ellipse class="st192" cx="215.7" cy="577" rx="26.7" ry="6.6"/>
			<path class="st193" d="M242,577c0,3.6-11.8,6.5-26.3,6.5s-26.3-2.9-26.3-6.5s11.8-6.5,26.3-6.5S242,573.5,242,577z"/>
			<ellipse class="st194" cx="215.7" cy="577" rx="25.9" ry="6.4"/>
			<ellipse class="st195" cx="215.7" cy="577" rx="25.5" ry="6.3"/>
			<path class="st196" d="M240.7,577c0,3.4-11.2,6.2-25.1,6.2c-13.9,0-25.1-2.8-25.1-6.2s11.2-6.2,25.1-6.2
				C229.5,570.9,240.7,573.6,240.7,577z"/>
			<path class="st197" d="M240.3,577.1c0,3.4-11,6.1-24.7,6.1s-24.7-2.7-24.7-6.1c0-3.4,11-6.1,24.7-6.1S240.3,573.7,240.3,577.1z"
				/>
			<path class="st198" d="M239.9,577.1c0,3.3-10.9,6-24.3,6s-24.3-2.7-24.3-6c0-3.3,10.9-6,24.3-6S239.9,573.8,239.9,577.1z"/>
			<path class="st199" d="M239.4,577.1c0,3.3-10.7,5.9-23.8,5.9c-13.2,0-23.8-2.6-23.8-5.9c0-3.3,10.7-5.9,23.8-5.9
				C228.8,571.2,239.4,573.8,239.4,577.1z"/>
			<path class="st200" d="M239,577.1c0,3.2-10.5,5.8-23.4,5.8s-23.4-2.6-23.4-5.8c0-3.2,10.5-5.8,23.4-5.8S239,573.9,239,577.1z"/>
			<ellipse class="st201" cx="215.6" cy="577.1" rx="23" ry="5.7"/>
			<ellipse class="st202" cx="215.6" cy="577.1" rx="22.6" ry="5.6"/>
			<path class="st203" d="M237.7,577.1c0,3-9.9,5.5-22.2,5.5c-12.3,0-22.2-2.5-22.2-5.5c0-3,9.9-5.5,22.2-5.5
				C227.8,571.6,237.7,574.1,237.7,577.1z"/>
			<ellipse class="st204" cx="215.5" cy="577.1" rx="21.8" ry="5.4"/>
			<path class="st205" d="M236.9,577.1c0,2.9-9.6,5.3-21.4,5.3c-11.8,0-21.4-2.4-21.4-5.3c0-2.9,9.6-5.3,21.4-5.3
				C227.3,571.8,236.9,574.2,236.9,577.1z"/>
			<path class="st206" d="M236.4,577.1c0,2.9-9.4,5.2-20.9,5.2c-11.6,0-20.9-2.3-20.9-5.2c0-2.9,9.4-5.2,20.9-5.2
				C227.1,571.9,236.4,574.2,236.4,577.1z"/>
			<path class="st207" d="M236,577.1c0,2.8-9.2,5.1-20.5,5.1c-11.3,0-20.5-2.3-20.5-5.1s9.2-5.1,20.5-5.1
				C226.8,572,236,574.3,236,577.1z"/>
			<path class="st208" d="M235.6,577.1c0,2.8-9,5-20.1,5c-11.1,0-20.1-2.2-20.1-5c0-2.8,9-5,20.1-5
				C226.6,572.1,235.6,574.4,235.6,577.1z"/>
			<ellipse class="st209" cx="215.4" cy="577.1" rx="19.7" ry="4.9"/>
			<path class="st210" d="M234.7,577.1c0,2.7-8.6,4.8-19.3,4.8c-10.7,0-19.3-2.2-19.3-4.8c0-2.7,8.6-4.8,19.3-4.8
				C226.1,572.3,234.7,574.5,234.7,577.1z"/>
			<path class="st211" d="M234.3,577.1c0,2.6-8.5,4.7-18.9,4.7c-10.4,0-18.9-2.1-18.9-4.7s8.5-4.7,18.9-4.7
				C225.8,572.4,234.3,574.5,234.3,577.1z"/>
			<path class="st212" d="M233.9,577.2c0,2.6-8.3,4.6-18.5,4.6c-10.2,0-18.5-2.1-18.5-4.6c0-2.6,8.3-4.6,18.5-4.6
				C225.6,572.5,233.9,574.6,233.9,577.2z"/>
			<path class="st213" d="M233.4,577.2c0,2.5-8.1,4.5-18.1,4.5s-18.1-2-18.1-4.5s8.1-4.5,18.1-4.5S233.4,574.7,233.4,577.2z"/>
			<path class="st214" d="M233,577.2c0,2.5-7.9,4.4-17.6,4.4c-9.7,0-17.6-2-17.6-4.4c0-2.5,7.9-4.4,17.6-4.4
				C225.1,572.7,233,574.7,233,577.2z"/>
			<path class="st215" d="M232.6,577.2c0,2.4-7.7,4.3-17.2,4.3c-9.5,0-17.2-1.9-17.2-4.3c0-2.4,7.7-4.3,17.2-4.3
				C224.9,572.8,232.6,574.8,232.6,577.2z"/>
			<path class="st216" d="M232.2,577.2c0,2.3-7.5,4.2-16.8,4.2c-9.3,0-16.8-1.9-16.8-4.2c0-2.3,7.5-4.2,16.8-4.2
				C224.6,572.9,232.2,574.8,232.2,577.2z"/>
			<ellipse class="st217" cx="215.3" cy="577.2" rx="16.4" ry="4.2"/>
			<path class="st218" d="M231.3,577.2c0,2.2-7.2,4.1-16,4.1c-8.8,0-16-1.8-16-4.1c0-2.2,7.2-4.1,16-4.1
				C224.1,573.1,231.3,575,231.3,577.2z"/>
			<ellipse class="st219" cx="215.3" cy="577.2" rx="15.6" ry="4"/>
			<ellipse class="st220" cx="215.3" cy="577.2" rx="15.2" ry="3.9"/>
			<path class="st221" d="M230,577.2c0,2.1-6.6,3.8-14.8,3.8c-8.1,0-14.8-1.7-14.8-3.8c0-2.1,6.6-3.8,14.8-3.8
				C223.4,573.4,230,575.1,230,577.2z"/>
			<ellipse class="st222" cx="215.2" cy="577.2" rx="14.3" ry="3.7"/>
			<path class="st223" d="M229.2,577.2c0,2-6.2,3.6-13.9,3.6c-7.7,0-13.9-1.6-13.9-3.6c0-2,6.2-3.6,13.9-3.6
				C222.9,573.7,229.2,575.3,229.2,577.2z"/>
			<path class="st224" d="M228.7,577.2c0,1.9-6,3.5-13.5,3.5s-13.5-1.6-13.5-3.5c0-1.9,6-3.5,13.5-3.5S228.7,575.3,228.7,577.2z"/>
			<path class="st225" d="M228.3,577.2c0,1.9-5.9,3.4-13.1,3.4c-7.2,0-13.1-1.5-13.1-3.4c0-1.9,5.9-3.4,13.1-3.4
				C222.4,573.9,228.3,575.4,228.3,577.2z"/>
			<path class="st226" d="M227.9,577.2c0,1.8-5.7,3.3-12.7,3.3s-12.7-1.5-12.7-3.3c0-1.8,5.7-3.3,12.7-3.3S227.9,575.4,227.9,577.2z
				"/>
			<ellipse class="st227" cx="215.2" cy="577.3" rx="12.3" ry="3.2"/>
			<path class="st228" d="M227,577.3c0,1.7-5.3,3.1-11.9,3.1c-6.5,0-11.9-1.4-11.9-3.1c0-1.7,5.3-3.1,11.9-3.1
				C221.7,574.2,227,575.6,227,577.3z"/>
			<path class="st229" d="M226.6,577.3c0,1.7-5.1,3-11.4,3s-11.4-1.3-11.4-3c0-1.7,5.1-3,11.4-3S226.6,575.6,226.6,577.3z"/>
			<path class="st230" d="M226.2,577.3c0,1.6-4.9,2.9-11,2.9s-11-1.3-11-2.9c0-1.6,4.9-2.9,11-2.9S226.2,575.7,226.2,577.3z"/>
			<path class="st231" d="M225.7,577.3c0,1.5-4.8,2.8-10.6,2.8c-5.9,0-10.6-1.3-10.6-2.8c0-1.5,4.8-2.8,10.6-2.8
				C221,574.5,225.7,575.7,225.7,577.3z"/>
			<path class="st232" d="M225.3,577.3c0,1.5-4.6,2.7-10.2,2.7c-5.6,0-10.2-1.2-10.2-2.7c0-1.5,4.6-2.7,10.2-2.7
				C220.7,574.6,225.3,575.8,225.3,577.3z"/>
			<path class="st233" d="M224.9,577.3c0,1.4-4.4,2.6-9.8,2.6c-5.4,0-9.8-1.2-9.8-2.6s4.4-2.6,9.8-2.6
				C220.5,574.7,224.9,575.9,224.9,577.3z"/>
			<ellipse class="st234" cx="215.1" cy="577.3" rx="9.4" ry="2.5"/>
			<path class="st235" d="M224,577.3c0,1.3-4,2.4-9,2.4s-9-1.1-9-2.4s4-2.4,9-2.4S224,576,224,577.3z"/>
			<ellipse class="st236" cx="215" cy="577.3" rx="8.6" ry="2.3"/>
			<path class="st237" d="M223.2,577.3c0,1.2-3.6,2.2-8.1,2.2c-4.5,0-8.1-1-8.1-2.2c0-1.2,3.6-2.2,8.1-2.2
				C219.5,575.1,223.2,576.1,223.2,577.3z"/>
			<path class="st238" d="M222.7,577.3c0,1.2-3.5,2.1-7.7,2.1c-4.3,0-7.7-0.9-7.7-2.1c0-1.2,3.5-2.1,7.7-2.1
				C219.3,575.2,222.7,576.2,222.7,577.3z"/>
			<ellipse class="st239" cx="215" cy="577.3" rx="7.3" ry="2"/>
			<path class="st240" d="M221.9,577.3c0,1.1-3.1,1.9-6.9,1.9c-3.8,0-6.9-0.9-6.9-1.9c0-1.1,3.1-1.9,6.9-1.9
				C218.8,575.4,221.9,576.3,221.9,577.3z"/>
			<ellipse class="st241" cx="215" cy="577.3" rx="6.5" ry="1.8"/>
			<path class="st242" d="M221,577.4c0,1-2.7,1.7-6.1,1.7c-3.4,0-6.1-0.8-6.1-1.7c0-1,2.7-1.7,6.1-1.7
				C218.3,575.6,221,576.4,221,577.4z"/>
			<path class="st243" d="M220.6,577.4c0,0.9-2.5,1.6-5.7,1.6c-3.1,0-5.7-0.7-5.7-1.6c0-0.9,2.5-1.6,5.7-1.6
				C218.1,575.7,220.6,576.5,220.6,577.4z"/>
			<path class="st244" d="M220.2,577.4c0,0.9-2.3,1.5-5.2,1.5c-2.9,0-5.2-0.7-5.2-1.5c0-0.9,2.3-1.5,5.2-1.5
				C217.8,575.8,220.2,576.5,220.2,577.4z"/>
			<path class="st245" d="M219.7,577.4c0,0.8-2.2,1.4-4.8,1.4c-2.7,0-4.8-0.6-4.8-1.4c0-0.8,2.2-1.4,4.8-1.4
				C217.6,575.9,219.7,576.6,219.7,577.4z"/>
			<path class="st246" d="M219.3,577.4c0,0.7-2,1.3-4.4,1.3c-2.4,0-4.4-0.6-4.4-1.3s2-1.3,4.4-1.3
				C217.3,576,219.3,576.6,219.3,577.4z"/>
			<ellipse class="st247" cx="214.9" cy="577.4" rx="4" ry="1.3"/>
			<path class="st248" d="M218.4,577.4c0,0.6-1.6,1.2-3.6,1.2c-2,0-3.6-0.5-3.6-1.2c0-0.6,1.6-1.2,3.6-1.2
				C216.8,576.2,218.4,576.8,218.4,577.4z"/>
			<ellipse class="st249" cx="214.8" cy="577.4" rx="3.2" ry="1.1"/>
			<path class="st250" d="M217.6,577.4c0,0.5-1.2,1-2.8,1c-1.5,0-2.8-0.4-2.8-1c0-0.5,1.2-1,2.8-1
				C216.3,576.4,217.6,576.9,217.6,577.4z"/>
			<path class="st251" d="M217.2,577.4c0,0.5-1.1,0.9-2.4,0.9s-2.4-0.4-2.4-0.9s1.1-0.9,2.4-0.9S217.2,576.9,217.2,577.4z"/>
			<path class="st252" d="M216.7,577.4c0,0.4-0.9,0.8-1.9,0.8c-1.1,0-1.9-0.3-1.9-0.8c0-0.4,0.9-0.8,1.9-0.8
				C215.9,576.7,216.7,577,216.7,577.4z"/>
			<ellipse cx="214.8" cy="577.4" rx="1.5" ry="0.7"/>
		</g>
	</g>
</g>
<g>
	<path class="st253" d="M278.9,178.5c-0.5-0.7-1.2-1.4-1.9-2c-2.5-1.8-6.3-2.7-11.5-2.7c-3.8,0-7.3,0.5-10.2,1.6
		c-1.8,0.7-3.4,1.5-4.8,2.6c-3.8,2.8-6.3,6.9-7.4,12.3l-2.3,10.4h16l2.3-10.5c0.3-1.6,0.8-2.7,1.4-3.3c0.6-0.7,1.3-1.1,2.3-1.1
		c1.1,0,1.8,0.4,2.1,1.1c0.3,0.7,0.3,1.8,0,3.3l-1.1,5.1c-0.5,2.5-3.4,5.1-8.7,7.7c-0.7,0.4-1.5,0.7-2.3,1.1c-2,0.9-3.5,1.6-4.6,2.2
		c-3.4,1.6-6,3.6-7.9,6c-1.9,2.4-3.3,5.5-4.1,9.3l-0.3,1.1l-3.1,14.2c-0.9,4-0.7,7.1,0.6,9c0.5,0.9,1.3,1.6,2.2,2.1
		c1.3,0.7,2.8,1,4.7,1c2.6,0,5-0.6,7.2-1.9c2.2-1.3,4.1-3.1,5.8-5.5h0.3l-0.3,1.1c-0.1,0.8-0.3,1.6-0.3,2.5c0,0.9-0.1,1.7,0,2.6
		h16.2c-0.1-1.4-0.1-2.8,0-4.3c0.1-1.5,0.4-3.2,0.9-5.1l6.6-30.1l3.1-13.8C281.4,186.8,281.1,181.5,278.9,178.5 M255.7,231.4
		c-0.2,1.1-0.6,2-1,2.7c-0.1,0.2-0.3,0.4-0.4,0.5c-0.6,0.7-1.4,1-2.4,1c-1.1,0-1.7-0.3-2.1-0.9c-0.3-0.6-0.2-1.7,0.1-3.4l2.6-11.9
		c0.2-1,1-2.1,2.3-3.4c1-1,2.3-2,3.9-3c0.5-0.4,0.8-0.6,1.1-0.8L255.7,231.4z"/>
	<path class="st253" d="M239.2,186.7c0.9-4.2,0.8-7.3-0.5-9.3c-0.5-0.9-1.3-1.7-2.4-2.2c-1.2-0.6-2.8-0.9-4.7-0.9
		c-2.5,0-4.8,0.6-7,1.9c-2.1,1.2-4.2,3.1-6.2,5.5h-0.3c-0.2-2.5-1.1-4.2-2.4-5.5c-1.4-1.2-3.2-1.9-5.6-1.9c-2.5,0-4.9,0.6-7,1.9
		c-2.2,1.2-4.2,3.1-6,5.5h-0.3l1.4-6.1h-15.6l-10.6,48l-5.3,24.2h15.8l12.3-55.9c0.3-1.4,0.8-2.5,1.4-3.2c0.7-0.7,1.5-1,2.5-1
		c1.1,0,1.8,0.3,2.1,0.9c0.3,0.6,0.2,1.7-0.1,3.4l-12.3,55.9h15.7l12.3-55.9c0.3-1.4,0.8-2.5,1.4-3.2c0.6-0.7,1.4-1,2.4-1
		c1.1,0,1.7,0.3,2.1,0.9c0.3,0.6,0.2,1.7-0.2,3.4l-12.3,55.9h16l10.3-47.2L239.2,186.7z"/>
	<path class="st253" d="M177.7,175.5h-16.1l-12.3,56.1c-0.3,1.5-0.7,2.6-1.3,3.2c-0.6,0.6-1.3,1-2.4,1c-1,0-1.8-0.3-2-0.9
		c-0.4-0.6-0.4-1.7,0-3.3l12.3-56.1h-15.9l-7.8,35.4l-5.7,25.9c-0.9,4.1-0.7,7.1,0.6,9.1c1,1.5,2.6,2.5,4.7,2.8
		c0.7,0.2,1.5,0.2,2.4,0.2c2.5,0,4.8-0.6,6.9-1.8c2.1-1.1,4.1-3,5.9-5.5h0.4l-1.3,6h15.7l10.5-47.9L177.7,175.5z"/>
	<path class="st253" d="M280.4,263.5h16c2.8-0.8,5.1-2,7-3.6c3.6-3.1,6.2-8.4,7.9-16l15-68.2h-15.5l-1.4,6.2h-0.4
		c-0.8-2.6-2-4.4-3.6-5.6c-1.6-1.2-3.6-1.8-6.2-1.8c-3.3,0-6.1,1-8.3,2.9c-2.2,1.9-3.7,4.8-4.5,8.4l-9.3,42.3
		c-0.9,4.2-0.8,7.3,0.4,9.2c1.2,1.9,3.6,2.9,7.1,2.9c2.7,0,5.1-0.6,7.2-2c2.2-1.3,4.1-3.3,5.8-6h0.3l-3.5,15.8
		c-0.4,1.6-0.8,2.7-1.5,3.5c-0.6,0.7-1.4,1.1-2.5,1.1c-1,0-1.7-0.3-2-1c-0.3-0.7-0.3-1.9,0.1-3.5l1.2-5.6H274l-1.2,5.4
		c-1.1,5.2-0.4,9.3,2.3,12.2C276.4,261.7,278.2,262.8,280.4,263.5 M296.1,227.4c-1.1,0-1.8-0.3-2.1-0.9c-0.3-0.6-0.3-1.8,0.1-3.5
		l6.9-31.4c0.4-1.6,0.8-2.7,1.4-3.3c0.6-0.6,1.4-0.9,2.5-0.9c1,0,1.7,0.4,2,1c0.3,0.7,0.3,1.8,0,3.2L300,223
		c-0.3,1.5-0.8,2.6-1.4,3.3C297.9,227.1,297.1,227.4,296.1,227.4z"/>
	<polygon class="st253" points="122.1,160 102.8,247.7 118.8,247.7 132.4,185.9 138.1,160 	"/>
</g>
</svg>
