<?xml version="1.0" encoding="utf-8"?>
<!-- Generator: Adobe Illustrator 27.0.1, SVG Export Plug-In . SVG Version: 6.00 Build 0)  -->
<svg version="1.1" id="Layer_1" xmlns="http://www.w3.org/2000/svg" xmlns:xlink="http://www.w3.org/1999/xlink" x="0px" y="0px"
	 viewBox="0 0 325 390.9" style="enable-background:new 0 0 325 390.9;" xml:space="preserve">
<style type="text/css">
	.st0{fill:#F9BE37;}
</style>
<g>
	<path class="st0" d="M318.2,342.1L268.4,222c-1.3-3.1-4.8-4.5-7.8-3.2c-3.1,1.3-4.5,4.8-3.2,7.8l45,108.6l-41-11.9
		c-2.7-0.8-5.6,0.4-6.9,2.9l-20.6,37.4L185.4,247c55.7-10.7,98-59.9,98-118.7c0-66.7-54.2-120.9-120.9-120.9
		C95.8,7.4,41.6,61.7,41.6,128.3c0,27,8.9,52,23.9,72.1L6.8,342.1c-0.9,2.1-0.5,4.6,1.1,6.3c1.5,1.7,3.9,2.4,6.1,1.8l48.4-14
		l24.3,44.2c1.1,1.9,3.1,3.1,5.3,3.1c0.1,0,0.2,0,0.3,0c2.3-0.1,4.3-1.6,5.2-3.7l46.5-112.3c1.3-3.1-0.2-6.6-3.2-7.8
		c-3.1-1.3-6.6,0.2-7.8,3.2L91.3,363.6l-20.6-37.4c-1.4-2.5-4.2-3.6-6.9-2.9l-41,11.9l51.5-124.4c22.1,23.6,53.5,38.4,88.3,38.4
		c3.6,0,7.1-0.2,10.7-0.5l54.3,131c0.9,2.1,2.9,3.6,5.2,3.7c0.1,0,0.2,0,0.3,0c2.2,0,4.2-1.2,5.3-3.1l24.3-44.2l48.4,14
		c2.2,0.6,4.6,0,6.1-1.8C318.6,346.7,319.1,344.3,318.2,342.1L318.2,342.1z M53.6,128.3c0-60,48.9-108.9,108.9-108.9
		c60,0,108.9,48.9,108.9,108.9c0,60-48.8,108.9-108.9,108.9C102.5,237.2,53.6,188.4,53.6,128.3L53.6,128.3z M53.6,128.3"/>
	<path class="st0" d="M231.8,105.8c-0.7-2.1-2.5-3.7-4.7-4.1L186.7,95l-18.9-36.3c-1-2-3.1-3.2-5.3-3.2c-2.2,0-4.3,1.2-5.3,3.2
		L138.3,95l-40.4,6.8c-2.2,0.4-4,1.9-4.7,4.1c-0.7,2.1-0.1,4.5,1.4,6.1l28.7,29.2l-6,40.5c-0.3,2.2,0.6,4.4,2.4,5.7
		c1.8,1.3,4.2,1.5,6.2,0.5l36.6-18.2l36.6,18.2c0.8,0.4,1.8,0.6,2.7,0.6c1.2,0,2.5-0.4,3.5-1.1c1.8-1.3,2.7-3.5,2.4-5.7l-6-40.5
		l28.7-29.2C232,110.3,232.5,107.9,231.8,105.8L231.8,105.8z M191.1,134.8c-1.3,1.3-1.9,3.2-1.7,5.1l4.8,32.1l-29-14.4
		c-0.8-0.4-1.8-0.6-2.7-0.6c-0.9,0-1.8,0.2-2.7,0.6l-29,14.4l4.8-32.1c0.3-1.9-0.3-3.7-1.7-5.1l-22.7-23.1l32-5.4
		c1.9-0.3,3.5-1.5,4.3-3.1l15-28.7l15,28.7c0.9,1.7,2.5,2.8,4.3,3.1l32,5.4L191.1,134.8z M191.1,134.8"/>
	<path class="st0" d="M253.4,134.4c-3.3-0.4-6.3,1.9-6.7,5.2c-5.6,42-41.7,73.7-84.2,73.7c-46.8,0-84.9-38.1-84.9-84.9
		c0-46.8,38.1-84.9,84.9-84.9c42.4,0,78.6,31.7,84.2,73.7c0.4,3.3,3.5,5.6,6.7,5.2c3.3-0.4,5.6-3.5,5.2-6.7
		c-6.4-47.9-47.6-84.1-96.1-84.1c-53.4,0-96.9,43.5-96.9,96.9c0,53.4,43.5,96.9,96.9,96.9c48.4,0,89.7-36.2,96.1-84.1
		C259,137.8,256.7,134.8,253.4,134.4L253.4,134.4z M253.4,134.4"/>
</g>
</svg>
