<?xml version="1.0" encoding="utf-8"?>
<svg version="1.1" id="Layer_1" xmlns="http://www.w3.org/2000/svg" xmlns:xlink="http://www.w3.org/1999/xlink" x="0px" y="0px"
	 viewBox="0 0 325 262.8" style="enable-background:new 0 0 325 262.8;" xml:space="preserve">
<style type="text/css">
	.st0{enable-background:new    ;}
	.st1{fill:#EFC054;}
	.st2{fill:#F0C154;}
</style>
<g class="st0">
	<path class="st1" d="M33.3,96.9v42.4H21.6v-27.8c-1.9,1.4-3.7,2.6-5.5,3.5c-1.8,0.9-4,1.7-6.7,2.6v-9.5c3.9-1.3,7-2.8,9.2-4.6
		c2.2-1.8,3.9-4,5.1-6.6H33.3z"/>
	<path class="st1" d="M65.8,131.5H44.7v-9.5l21.1-25.1h10.1v25.6h5.2v9h-5.2v7.8H65.8V131.5z M65.8,122.5v-13.1l-11.1,13.1H65.8z"/>
</g>
<g class="st0">
	<path class="st1" d="M113.3,111.5v7.7h4.2v5.6h-4.2v7.1c0,0.9,0.1,1.4,0.2,1.7c0.3,0.4,0.7,0.6,1.3,0.6c0.6,0,1.4-0.2,2.4-0.5
		l0.6,5.3c-1.9,0.4-3.7,0.6-5.3,0.6c-1.9,0-3.3-0.2-4.2-0.7c-0.9-0.5-1.6-1.2-2-2.2s-0.7-2.6-0.7-4.9v-7.1h-2.8v-5.6h2.8v-3.7
		L113.3,111.5z"/>
	<path class="st1" d="M119,119.1h8.1l4.1,13.4l3.9-13.4h7.6l-8,21.5c-0.9,2.5-1.8,4.1-2.8,5c-1.3,1.2-3.4,1.8-6.1,1.8
		c-1.1,0-2.8-0.2-5.1-0.5l-0.6-5.4c1.1,0.4,2.3,0.5,3.7,0.5c0.9,0,1.6-0.2,2.2-0.6c0.6-0.4,1-1.2,1.4-2.2L119,119.1z"/>
	<path class="st1" d="M143.6,133.7l7.6-0.7c0.3,0.9,0.8,1.6,1.3,1.9c0.6,0.4,1.3,0.6,2.3,0.6c1,0,1.8-0.2,2.4-0.7
		c0.4-0.3,0.7-0.7,0.7-1.2c0-0.6-0.3-1-0.9-1.3c-0.4-0.2-1.5-0.5-3.3-0.8c-2.7-0.5-4.5-0.9-5.6-1.3c-1-0.4-1.9-1.1-2.6-2
		c-0.7-0.9-1.1-2-1.1-3.2c0-1.3,0.4-2.5,1.2-3.4c0.8-1,1.8-1.7,3.2-2.1c1.4-0.5,3.2-0.7,5.4-0.7c2.4,0,4.2,0.2,5.3,0.5
		c1.1,0.4,2.1,0.9,2.9,1.7c0.8,0.8,1.4,1.8,1.9,3.1l-7.3,0.7c-0.2-0.6-0.5-1.1-0.9-1.4c-0.6-0.4-1.3-0.6-2.2-0.6
		c-0.9,0-1.5,0.2-1.9,0.5c-0.4,0.3-0.6,0.7-0.6,1.1c0,0.5,0.3,0.9,0.8,1.1c0.5,0.3,1.6,0.5,3.3,0.7c2.6,0.3,4.5,0.7,5.7,1.2
		c1.3,0.5,2.2,1.3,2.9,2.2c0.7,1,1,2,1,3.2c0,1.2-0.3,2.3-1,3.4s-1.8,2-3.3,2.6c-1.5,0.6-3.6,1-6.2,1c-3.7,0-6.3-0.5-7.8-1.6
		C145,137.1,144,135.6,143.6,133.7z"/>
	<path class="st1" d="M168.7,131.5h8.2v7.7h-8.2V131.5z"/>
</g>
<g class="st0">
	<path class="st2" d="M15.1,148.1h47.8v12.6h-16V199H31.2v-38.3h-16V148.1z"/>
	<path class="st2" d="M65.6,173.6c0-8.3,2.3-14.8,6.9-19.4c4.6-4.6,11.1-6.9,19.3-6.9c8.5,0,15,2.3,19.6,6.8s6.9,10.9,6.9,19.1
		c0,5.9-1,10.8-3,14.6s-4.9,6.8-8.7,8.9c-3.8,2.1-8.5,3.2-14.1,3.2c-5.7,0-10.5-0.9-14.2-2.7c-3.8-1.8-6.8-4.7-9.1-8.7
		C66.8,184.5,65.6,179.5,65.6,173.6z M81.3,173.7c0,5.1,1,8.8,2.9,11.1s4.5,3.4,7.8,3.4c3.4,0,6-1.1,7.8-3.3
		c1.8-2.2,2.8-6.1,2.8-11.8c0-4.8-1-8.3-2.9-10.5c-1.9-2.2-4.6-3.3-7.9-3.3c-3.2,0-5.7,1.1-7.6,3.4
		C82.3,164.8,81.3,168.5,81.3,173.7z"/>
	<path class="st2" d="M126.9,148.1h14.7l19.2,28.1v-28.1h14.8V199h-14.8l-19.1-27.9V199h-14.8V148.1z"/>
</g>
<path class="st2" d="M312.5,244.6L242.4,72.1c-0.7-1.9-1.9-2.6-3.8-2.6h-32.3l3.3-4.6c3.6-5,5.4-10.8,5.4-17.2
	c0-8.3-2.9-15.2-8.7-21c-5.8-5.8-12.7-8.7-21-8.7c-8.3,0-15.2,2.9-21,8.7c-5.9,5.8-8.7,12.7-8.7,21c0,6.1,2,11.9,5.8,17.2l3.3,4.6
	h-31.7c-1.9,0-3,0.8-3.8,2.7l-14.4,35.3h8.9l12.1-29.6h99.9L302.3,242H68.5l15.2-37.1h-8.8l-16.3,39.8c-0.2,0.5-0.3,1.1-0.3,1.5
	c0,0.7,0.3,1.5,0.8,2.3c0.9,1.3,1.9,1.8,3.4,1.8h246.2c1.5,0,2.5-0.5,3.3-1.8C312.9,247.1,313,246,312.5,244.6z M185.4,68.9
	c-6,0-11.1-2.1-15.2-6.2c-4.1-4.1-6.2-9.2-6.2-15.1c0-5.9,2.1-11,6.2-15.2c4.1-4.2,9.3-6.3,15.2-6.3c5.8,0,10.9,2.1,15.1,6.3
	c4.2,4.2,6.3,9.3,6.3,15.2c0,5.9-2.1,11-6.3,15.2C196.3,66.8,191.3,68.9,185.4,68.9z"/>
</svg>
