<?xml version="1.0" encoding="utf-8"?>
<svg version="1.1" id="Layer_1" xmlns="http://www.w3.org/2000/svg" xmlns:xlink="http://www.w3.org/1999/xlink" x="0px" y="0px"
	 viewBox="0 0 325 390.9" style="enable-background:new 0 0 325 390.9;" xml:space="preserve">
<g>
	<path class="icon-shield-path" d="M14.8,127.5c0-23.6,0-47.3,0-70.9c0-6.2,1.2-7.8,7.2-9.5c45.4-13,90.7-25.9,136.1-38.8
		c2.4-0.7,5.3-0.8,7.7-0.1c46,12.9,91.9,25.9,137.8,39c5.2,1.5,6.6,3.4,6.6,8.7c0,45,0.3,90.1-0.1,135.1
		c-0.7,88.4-58,165.2-142.5,191.3c-3.1,1-7.1,1-10.1,0C80.1,356.1,33.4,302.7,17.6,222.5c-2.2-11-2.5-22.5-2.7-33.8
		C14.5,168.3,14.8,147.9,14.8,127.5z M296.8,130.8c0-22.4-0.1-44.8,0.1-67.1c0-3.7-1.2-5-4.6-5.9c-42.1-11.9-84.1-24-126.1-35.8
		c-2.4-0.7-5.3-0.6-7.7,0.1c-42.2,12-84.2,24.2-126.4,36.2c-3.3,0.9-4,2.2-4,5.4c0.1,41.8-0.1,83.6,0.2,125.4
		c0.1,10.7,0.6,21.6,2.7,32.1C45.8,295,88.9,344.5,160.1,369.2c1.5,0.5,3.6,0.4,5.2-0.1c18.9-5.9,36.7-14.5,52.6-26.3
		c51.7-38.5,78-90.1,78.9-154.5C297,169.2,296.8,150,296.8,130.8z"/>
	<path class="icon-shield-path" d="M283.4,137.7c0,16.8,0,33.6,0,50.3c0.1,54.7-21.7,99.4-62.5,135.2c-14.1,12.3-29.6,22.5-47.1,29.4
		c-7.1,2.8-13.8,2.9-21-0.2C89.3,325.2,52.5,277.5,42.7,209.1c-0.9-6.5-1.1-13.1-1.1-19.7c-0.1-37.3,0-74.7,0-112
		c0-6.6,1.1-7.9,7.4-9.7c36.5-10.5,73-21,109.6-31.3c2.4-0.7,5.3-0.7,7.7,0c37,10.3,73.9,20.7,110.9,31.2c4.9,1.4,6.2,3.3,6.2,8.5
		C283.4,96.6,283.4,117.2,283.4,137.7z M55.1,79.8c0,1.3,0,2.4,0,3.5c0,35.8-0.1,71.6,0.1,107.4c0,7,0.4,14,1.6,20.9
		c10,61.8,44.2,104.6,102,128.5c2.9,1.2,5.2,1,7.9-0.1c61.8-23.7,102.8-82.6,103.3-148.8c0.3-36.1,0.1-72.2,0-108.2
		c0-1.1-0.2-2.1-0.2-3.1c-0.6-0.3-1-0.5-1.4-0.6c-34.5-9.9-69-19.8-103.5-29.5c-1.6-0.5-3.6-0.2-5.3,0.3
		c-18.4,5.2-36.8,10.4-55.2,15.6C88,70.4,71.6,75.1,55.1,79.8z"/>
	<path class="icon-shield-path" d="M149.1,219.4c18.5-18.5,36.7-36.7,54.9-54.9c2.3-2.3,4.5-4.6,6.8-6.8c3.4-3.2,7.2-3.4,10-0.6
		c2.8,2.8,2.8,6.8-0.4,10c-7.6,7.8-15.4,15.5-23.1,23.2c-14,13.9-27.9,27.8-41.9,41.6c-5.6,5.5-7.3,5.5-12.9,0
		c-12.6-12.5-25.2-25-37.7-37.6c-3.5-3.5-3.7-7.5-0.7-10.3c2.9-2.8,6.8-2.6,10.3,0.9c10.5,10.4,20.9,21,31.4,31.4
		C146.8,217.3,147.8,218.2,149.1,219.4z"/>
</g>
</svg>
