<?xml version="1.0" encoding="utf-8"?>
<!-- Generator: Adobe Illustrator 27.0.1, SVG Export Plug-In . SVG Version: 6.00 Build 0)  -->
<svg version="1.1" id="Layer_1" xmlns="http://www.w3.org/2000/svg" xmlns:xlink="http://www.w3.org/1999/xlink" x="0px" y="0px"
	 viewBox="0 0 534.7 543" style="enable-background:new 0 0 534.7 543;" xml:space="preserve">
<style type="text/css">
	.st0{fill:#404041;}
</style>
<g>
	<path class="st0" d="M267.3,15.5c-141.4,0-256,114.6-256,256c0,141.4,114.6,256,256,256s256-114.6,256-256
		C523.3,130.1,408.7,15.5,267.3,15.5z M182.8,411.4c-18.2-0.2-36.4-0.2-54.7,0c-2.9,0-3.8-0.7-3.8-3.7c0.1-64.9,0.1-129.8,0-194.7
		c0-2.7,0.6-3.6,3.5-3.6c18.5,0.1,36.9,0.2,55.4,0c3.6,0,4.1,1.4,4,4.4c-0.1,32.3,0,64.6,0,96.9c0,32,0,64.1,0.1,96.2
		C187.4,410.3,186.5,411.4,182.8,411.4z M156,181.5c-19.8,0-36.3-16.4-36.4-36.2c-0.1-20,16.4-36.5,36.4-36.5
		c19.9,0,36.3,16.3,36.3,36.2C192.4,165.1,176,181.5,156,181.5z M422.9,407.2c0,3.3-0.9,4.2-4.2,4.1c-18.2-0.2-36.4-0.2-54.7,0
		c-3.2,0-3.9-1-3.9-4c0.1-33.6,0.2-67.3,0-100.9c0-8.5-0.6-16.9-3-25.1c-4.3-15.1-15.1-22.8-31-22c-21.6,1.1-32.8,11.8-35.6,33.8
		c-0.7,5.2-1,10.5-1,15.8c0,32.7,0,65.5,0.1,98.2c0,3.3-0.8,4.2-4.1,4.2c-18.4-0.2-36.7-0.2-55.1,0c-3,0-3.8-0.8-3.8-3.8
		c0.1-64.8,0.1-129.6,0-194.4c0-3.2,1.1-3.9,4.1-3.9c17.4,0.1,34.9,0.2,52.3,0c3.2,0,4,1,4,4.1c-0.2,7.7-0.1,15.5-0.1,23.2
		c4.2-4.7,7.7-9.5,12-13.6c13.3-12.5,29-18.8,47.3-18.7c10.1,0.1,20,0.8,29.7,3.6c22.2,6.4,35.1,21.7,41.3,43.4
		c4.6,16.3,5.5,33,5.5,49.8C423,336.4,422.9,371.8,422.9,407.2z"/>
</g>
</svg>
