<?xml version="1.0" encoding="utf-8"?>
<!-- Generator: Adobe Illustrator 27.0.1, SVG Export Plug-In . SVG Version: 6.00 Build 0)  -->
<svg version="1.1" id="Layer_1" xmlns="http://www.w3.org/2000/svg" xmlns:xlink="http://www.w3.org/1999/xlink" x="0px" y="0px"
	 viewBox="0 0 111 108.4" style="enable-background:new 0 0 111 108.4;" xml:space="preserve">
<style type="text/css">
	.st0{fill:#404041;}
</style>
<g>
	<path class="st0" d="M99,107.1c-0.9,0-1.8,0-2.7,0c-3-0.6-5.3-2.3-7.4-4.4c-4.1-4.2-8.2-8.3-12.4-12.4c-1.1-1.1-1.1-1.1-2.3-0.3
		c-10.5,6.2-21.7,8-33.6,5.7c-10.9-2.1-20-7.6-27.1-16.1C8.3,73.2,4.8,65.8,3.4,57.6c-0.3-1.7-0.5-3.5-0.8-5.3c0-2.3,0-4.5,0-6.8
		c0.1-0.3,0.1-0.6,0.2-0.9c0.3-3.9,1.1-7.7,2.4-11.4C13,10.6,36.3-2.5,59.9,2.3c10.7,2.2,19.6,7.4,26.6,15.8
		C95.7,29,99.1,41.7,97.3,55.7c-0.8,6.3-3,12.2-6.3,17.6c-0.5,0.8-0.4,1.2,0.2,1.8c4.8,4.7,9.6,9.5,14.3,14.3c3.9,4,3.8,10.1,0,14.2
		C103.7,105.5,101.5,106.6,99,107.1z M87.1,48.9C87.1,28.6,71.2,12,50.2,12c-20.7,0-37,16.1-37,36.9c0,20.9,16.4,36.8,36.9,36.9
		C70.4,86,87.1,69.2,87.1,48.9z"/>
	<path class="st0" d="M44.9,62.8c0-2.5,0-5,0-7.5c0-0.8-0.2-1-1-1c-4.9,0-9.8,0-14.8,0c-2.2,0-4-0.8-4.9-2.9
		c-1.6-3.6,0.8-7.6,4.8-7.6c4.9-0.1,9.8,0,14.7,0c1.2,0,1.2,0,1.2-1.2c0-4.8,0-9.6,0-14.3c0-2.6,1.4-4.6,3.6-5.3
		c2.9-0.9,6.9,0.4,7,4.9c0.1,5,0,9.9,0,14.9c0,1.1,0,1.1,1.1,1.1c4.8,0,9.6,0,14.4,0c2.6,0,4.6,1.4,5.3,3.6c1,3.2-0.7,6.9-4.9,7
		c-5,0.1-9.9,0-14.9,0c-1.2,0-1.1-0.1-1.1,1.1c0,4.9,0,9.8,0,14.7c0,2-0.7,3.7-2.6,4.7c-3.8,2-7.9-0.3-8-4.6
		C44.8,67.7,44.9,65.3,44.9,62.8C44.9,62.8,44.9,62.8,44.9,62.8z"/>
</g>
</svg>
